{
  "accessors": [
    {
      "bufferView": 2,
      "componentType": 5126,
      "count": 26601,
      "max": [
        10.843011856079102,
        4.8609476089477539,
        32.029644012451172
      ],
      "min": [
        -10.842034339904785,
        -4.8609476089477539,
        -32.036487579345703
      ],
      "type": "VEC3"
    },
    {
      "bufferView": 2,
      "byteOffset": 319212,
      "componentType": 5126,
      "count": 26601,
      "max": [
        0.99973493814468384,
        0.99998772144317627,
        0.99830663204193115
      ],
      "min": [
        -0.99985802173614502,
        -0.9999852180480957,
        -0.98419827222824097
      ],
      "type": "VEC3"
    },
    {
      "bufferView": 3,
      "componentType": 5126,
      "count": 26601,
      "max": [
        1,
        1,
        1,
        1
      ],
      "min": [
        1,
        1,
        1,
        1
      ],
      "type": "VEC4"
    },
    {
      "bufferView": 1,
      "componentType": 5126,
      "count": 26601,
      "max": [
        0.99594998359680176,
        0.99803000688552856
      ],
      "min": [
        0.0019600000232458115,
        0.0019499999471008778
      ],
      "type": "VEC2"
    },
    {
      "bufferView": 0,
      "componentType": 5125,
      "count": 152190,
      "max": [
        26600
      ],
      "min": [
        0
      ],
      "type": "SCALAR"
    }
  ],
  "asset": {
    "extras": {
      "author": "Museo Nacional de Historia Natural de Chile (https://sketchfab.com/MNHNcl)",
      "license": "CC0-1.0 (http://creativecommons.org/publicdomain/zero/1.0/)",
      "source": "https://sketchfab.com/3d-models/punta-de-proyectil-92dc013df02b4d0fa41846572332efcf",
      "title": "Punta de proyectil"
    },
    "generator": "Sketchfab-7.80.0",
    "version": "2.0"
  },
  "bufferViews": [
    {
      "buffer": 0,
      "byteLength": 608760,
      "byteOffset": 0,
      "name": "floatBufferViews",
      "target": 34963
    },
    {
      "buffer": 0,
      "byteLength": 212808,
      "byteOffset": 608760,
      "byteStride": 8,
      "name": "floatBufferViews",
      "target": 34962
    },
    {
      "buffer": 0,
      "byteLength": 638424,
      "byteOffset": 821568,
      "byteStride": 12,
      "name": "floatBufferViews",
      "target": 34962
    },
    {
      "buffer": 0,
      "byteLength": 425616,
      "byteOffset": 1459992,
      "byteStride": 16,
      "name": "floatBufferViews",
      "target": 34962
    }
  ],
  "buffers": [
    {
      "byteLength": 1885608,
      "uri": "scene.bin"
    }
  ],
  "images": [
    {
      "uri": "textures/defaultMat_baseColor.jpeg"
    }
  ],
  "materials": [
    {
      "doubleSided": true,
      "emissiveFactor": [
        0,
        0,
        0
      ],
      "name": "defaultMat",
      "pbrMetallicRoughness": {
        "baseColorFactor": [
          1,
          1,
          1,
          1
        ],
        "baseColorTexture": {
          "index": 0,
          "texCoord": 0
        },
        "metallicFactor": 0,
        "roughnessFactor": 1
      }
    }
  ],
  "meshes": [
    {
      "primitives": [
        {
          "attributes": {
            "COLOR_0": 2,
            "NORMAL": 1,
            "POSITION": 0,
            "TEXCOORD_0": 3
          },
          "indices": 4,
          "material": 0,
          "mode": 4
        }
      ]
    }
  ],
  "nodes": [
    {
      "children": [
        1
      ],
      "name": "RootNode (gltf orientation matrix)",
      "rotation": [
        -0.70710678118654746,
        -0,
        -0,
        0.70710678118654757
      ]
    },
    {
      "children": [
        2
      ],
      "matrix": [
        -0.017527129501104355,
        -0.12936744093894958,
        0.99144178628921509,
        0,
        -0.011523370631039143,
        0.99155443906784058,
        0.12917841970920563,
        0,
        -0.99977999925613403,
        -0.0091606248170137405,
        -0.018869850784540176,
        0,
        -0.0029527195729315281,
        3.5180761187803e-05,
        -0.0040606972761452198,
        1
      ],
      "name": "RootNode (model correction matrix)"
    },
    {
      "children": [
        3
      ],
      "name": "050AR_L_MK1.OBJ.cleaner.materialmerger.gles"
    },
    {
      "mesh": 0,
      "name": ""
    }
  ],
  "samplers": [
    {
      "magFilter": 9729,
      "minFilter": 9987,
      "wrapS": 10497,
      "wrapT": 10497
    }
  ],
  "scene": 0,
  "scenes": [
    {
      "name": "OSG_Scene",
      "nodes": [
        0
      ]
    }
  ],
  "textures": [
    {
      "sampler": 0,
      "source": 0
    }
  ]
}

