<svg width="21" height="12" viewBox="0 0 21 12" fill="none" xmlns="http://www.w3.org/2000/svg">
<path id="Vector" d="M20.2336 2.06554L11.1431 11.2312C11.0587 11.3164 10.9585 11.384 10.8481 11.4301C10.7378 11.4763 10.6195 11.5 10.5 11.5C10.3805 11.5 10.2622 11.4763 10.1519 11.4301C10.0415 11.384 9.94128 11.3164 9.85685 11.2312L0.766401 2.06554C0.595827 1.89356 0.5 1.6603 0.5 1.41707C0.5 1.17385 0.595827 0.940589 0.766401 0.768604C0.936975 0.596619 1.16832 0.5 1.40955 0.5C1.65078 0.5 1.88213 0.596619 2.0527 0.768604L10.5 9.28692L18.9473 0.768604C19.0318 0.683446 19.132 0.615895 19.2424 0.569808C19.3527 0.52372 19.471 0.5 19.5904 0.5C19.7099 0.5 19.8282 0.52372 19.9385 0.569808C20.0489 0.615895 20.1491 0.683446 20.2336 0.768604C20.3181 0.853762 20.3851 0.95486 20.4308 1.06612C20.4765 1.17739 20.5 1.29664 20.5 1.41707C20.5 1.53751 20.4765 1.65676 20.4308 1.76802C20.3851 1.87929 20.3181 1.98039 20.2336 2.06554Z" fill="url(#paint0_angular_227_1049)"/>
<defs>
<radialGradient id="paint0_angular_227_1049" cx="0" cy="0" r="1" gradientUnits="userSpaceOnUse" gradientTransform="translate(10.5127 5.99303) rotate(137.04) scale(6.54645 7.45628)">
<stop stop-color="#F0555B"/>
<stop offset="0.164862" stop-color="#F0555D"/>
<stop offset="0.394216" stop-color="#F0625D"/>
<stop offset="0.587503" stop-color="#F28B78"/>
<stop offset="0.821872" stop-color="#F26E66"/>
<stop offset="1" stop-color="#F26567"/>
</radialGradient>
</defs>
</svg>
