<svg width="39" height="39" viewBox="0 0 39 39" fill="none" xmlns="http://www.w3.org/2000/svg">
<circle cx="19.5" cy="19.5" r="19" fill="white" stroke="white"/>
<path d="M13.5608 20.1875H13.4099L13.5166 20.2942L18.9868 25.7632C19.0506 25.8271 19.1013 25.9029 19.1359 25.9864C19.1704 26.0698 19.1882 26.1593 19.1882 26.2496C19.1882 26.34 19.1704 26.4294 19.1359 26.5129C19.1013 26.5963 19.0506 26.6721 18.9868 26.736C18.9229 26.7999 18.8471 26.8506 18.7636 26.8851C18.6801 26.9197 18.5907 26.9375 18.5003 26.9375C18.41 26.9375 18.3206 26.9197 18.2371 26.8851C18.1536 26.8506 18.0778 26.7999 18.0139 26.736L11.2642 19.9864L11.2641 19.9864C11.2002 19.9225 11.1495 19.8467 11.1149 19.7633C11.0803 19.6798 11.0625 19.5903 11.0625 19.5C11.0625 19.4097 11.0803 19.3202 11.1149 19.2367C11.1495 19.1533 11.2002 19.0775 11.2641 19.0136L11.2642 19.0136L18.0139 12.264C18.1429 12.135 18.3179 12.0625 18.5003 12.0625C18.6828 12.0625 18.8578 12.135 18.9868 12.264C19.1158 12.393 19.1882 12.5679 19.1882 12.7504C19.1882 12.9328 19.1158 13.1078 18.9868 13.2368C18.9868 13.2368 18.9868 13.2368 18.9868 13.2368L13.5166 18.7058L13.4099 18.8125H13.5608H28.25C28.4324 18.8125 28.6072 18.885 28.7361 19.0139C28.8651 19.1428 28.9375 19.3177 28.9375 19.5C28.9375 19.6823 28.8651 19.8572 28.7361 19.9861C28.6072 20.115 28.4324 20.1875 28.25 20.1875H13.5608Z" fill="black" stroke="black" stroke-width="0.125"/>
</svg>
