<svg width="1580" height="110" viewBox="0 0 1580 110" fill="none" xmlns="http://www.w3.org/2000/svg">
<path d="M30.048 78.88C30.048 71.488 30.048 31.744 30.048 23.68C30.048 20.224 29.76 15.52 29.088 12.064H44.064C43.68 15.52 43.2 19.648 43.2 23.68C43.2 34.24 43.296 71.776 43.296 78.88C43.296 81.568 43.68 88.288 44.16 92.224H29.088C29.76 88.48 30.048 82.624 30.048 78.88ZM40.416 36.928C53.184 40.48 73.92 48.064 83.328 52.672L77.952 66.016C67.008 60.352 50.88 54.208 40.416 50.752V36.928ZM99.168 14.368C101.76 14.752 105.888 14.944 109.152 14.944C115.2 14.944 140.448 14.944 146.016 14.944C149.088 14.944 153.792 14.752 156.384 14.368V26.848C153.888 26.656 149.376 26.464 145.824 26.464C140.544 26.464 114.816 26.464 109.152 26.464C105.984 26.464 101.952 26.56 99.168 26.848V14.368ZM164.544 42.304C163.872 43.552 163.008 45.28 162.72 46.24C159.744 55.552 155.616 64.96 148.512 72.832C138.816 83.68 126.528 90.112 114.24 93.664L104.64 82.816C119.136 79.744 130.56 73.504 137.952 65.92C143.04 60.736 146.112 54.688 147.744 49.408C142.944 49.408 110.016 49.408 101.472 49.408C99.072 49.408 94.272 49.504 90.24 49.792V37.312C94.368 37.696 98.4 37.984 101.472 37.984C108 37.984 142.368 37.984 148.896 37.984C152.064 37.984 154.656 37.6 156 36.928L164.544 42.304ZM161.472 50.752C178.656 46.336 192.672 40.096 203.424 33.472C213.216 27.424 224.16 17.824 230.4 10.24L240.768 20.032C232.032 28.864 220.32 37.888 208.992 44.704C198.144 51.136 182.592 58.336 167.424 62.848L161.472 50.752ZM201.408 39.712L215.04 36.448V79.744C215.04 83.968 215.232 89.92 215.904 92.32H200.64C201.024 90.016 201.408 83.968 201.408 79.744V39.712Z" fill="#DF003A"/>
<path d="M309 87C315.329 87 321.516 85.1232 326.778 81.607C332.041 78.0908 336.142 73.0931 338.564 67.2459C340.986 61.3986 341.62 54.9645 340.385 48.7571C339.15 42.5497 336.103 36.8479 331.627 32.3726C327.152 27.8973 321.45 24.8496 315.243 23.6149C309.035 22.3801 302.601 23.0139 296.754 25.4359C290.907 27.8579 285.909 31.9594 282.393 37.2218C278.877 42.4841 277 48.671 277 55C277.009 63.4842 280.383 71.6183 286.382 77.6175C292.382 83.6167 300.516 86.991 309 87ZM306.538 81.9631C304.872 81.811 303.224 81.5019 301.615 81.04L301.615 28.9477C303.224 28.4858 304.872 28.1767 306.538 28.0246L306.538 81.9631ZM296.692 79.1138C294.938 78.2156 293.287 77.1281 291.769 75.8708L291.769 34.1292C293.287 32.8719 294.938 31.7844 296.692 30.8862L296.692 79.1138ZM336.077 55C336.069 61.7526 333.541 68.2591 328.988 73.2461C324.435 78.2331 318.185 81.3415 311.462 81.9631L311.462 28.0369C318.185 28.6585 324.435 31.7669 328.988 36.7539C333.541 41.7409 336.069 48.2474 336.077 55ZM286.846 39.4492L286.846 70.5508C283.642 65.9981 281.923 60.567 281.923 55C281.923 49.433 283.642 44.0019 286.846 39.4492Z" fill="white"/>
<path d="M379.124 12.864H400.916V14.616H379.124V12.864ZM383.66 25.416H400.1V27.144H383.66V25.416ZM389.828 19.632H396.164V21.336H389.828V19.632ZM382.724 7.488H384.572V28.944H382.724V7.488ZM389.036 6.984H390.86V22.512H389.036V6.984ZM395.372 7.248H397.172V22.392H395.372V7.248ZM407.54 13.152V15.768H420.404V13.152H407.54ZM407.54 9.144V11.712H420.404V9.144H407.54ZM405.74 7.632H422.252V17.256H405.74V7.632ZM416.636 16.272C418.316 18.6 421.7 20.544 425.06 21.432C424.652 21.792 424.124 22.488 423.86 22.968C420.428 21.864 416.996 19.584 415.1 16.848L416.636 16.272ZM411.452 16.272L413.012 16.92C411.092 19.584 407.564 21.888 404.276 23.064C403.988 22.608 403.46 21.936 403.052 21.576C406.292 20.64 409.724 18.576 411.452 16.272ZM409.46 20.496H411.284V21.984C411.284 24.288 410.708 27.192 406.052 29.064C405.788 28.608 405.212 27.984 404.804 27.624C409.028 26.04 409.46 23.712 409.46 21.936V20.496ZM413.036 8.424H414.86V16.584H413.036V8.424ZM417.092 20.496H418.94V28.872H417.092V20.496ZM437.036 8.04C436.82 8.976 436.556 10.296 435.932 11.904C435.332 13.368 434.444 14.976 433.484 16.224C434.42 15.672 435.788 15.336 436.844 15.336C438.692 15.336 440.132 16.44 440.132 18.384C440.132 19.632 440.18 22.392 440.204 23.88H438.356C438.452 22.608 438.476 20.136 438.452 18.888C438.428 17.496 437.468 16.848 436.22 16.848C434.684 16.848 433.172 17.616 432.068 18.6C431.372 19.272 430.7 20.136 429.908 21.12L428.252 19.896C431.708 16.584 433.316 13.8 434.132 11.76C434.66 10.44 434.996 9 435.068 7.872L437.036 8.04ZM428.804 10.632C430.1 10.8 431.756 10.872 432.86 10.872C436.1 10.872 440.252 10.68 443.636 10.08V11.856C440.276 12.36 435.812 12.576 432.764 12.576C431.732 12.576 430.148 12.528 428.804 12.432V10.632ZM447.14 16.416C446.54 16.608 445.676 16.944 445.028 17.184C443.324 17.856 441.044 18.768 438.716 19.968C436.34 21.216 434.66 22.512 434.66 24.168C434.66 26.04 436.508 26.328 438.98 26.328C440.852 26.328 443.444 26.112 445.556 25.728L445.484 27.672C443.66 27.888 440.996 28.08 438.908 28.08C435.5 28.08 432.74 27.336 432.74 24.432C432.74 21.504 435.716 19.704 438.572 18.24C440.852 17.064 442.796 16.32 444.38 15.576C445.1 15.24 445.7 14.976 446.372 14.64L447.14 16.416ZM451.508 9.24H472.556V10.944H451.508V9.24ZM461.036 6.864H462.884V9.912H461.036V6.864ZM464.276 9.912H466.028V16.224C466.028 17.136 465.884 17.592 465.188 17.856C464.54 18.12 463.436 18.144 461.828 18.144C461.756 17.64 461.54 17.016 461.348 16.512C462.524 16.56 463.556 16.56 463.892 16.536C464.204 16.536 464.276 16.464 464.276 16.2V9.912ZM459.26 9.72H460.94V11.064C460.94 13.536 460.58 16.728 456.764 19.032C456.5 18.648 455.876 18.072 455.468 17.808C458.948 15.792 459.26 13.056 459.26 11.04V9.72ZM467.276 12.888L468.692 12.048C470.228 13.44 472.1 15.408 472.964 16.728L471.452 17.664C470.66 16.344 468.836 14.328 467.276 12.888ZM455.132 12.168L456.836 12.648C455.828 14.448 454.076 16.32 452.324 17.472C452.012 17.136 451.436 16.656 451.076 16.392C452.732 15.384 454.388 13.68 455.132 12.168ZM457.988 20.688C460.484 24.552 466.028 26.736 473.06 27.312C472.676 27.72 472.22 28.464 472.004 28.992C464.78 28.2 459.332 25.752 456.404 21.24L457.988 20.688ZM459.38 17.688L461.3 18.072C459.5 20.496 456.74 22.752 452.852 24.432C452.588 24.024 452.084 23.4 451.7 23.112C455.396 21.696 458.012 19.608 459.38 17.688ZM458.66 19.512H467.636V21H457.34L458.66 19.512ZM467.156 19.512H467.564L467.9 19.44L469.052 20.256C466.004 25.584 459.164 27.984 451.988 28.992C451.844 28.56 451.436 27.768 451.1 27.408C458.108 26.592 464.612 24.408 467.156 19.824V19.512ZM481.484 8.088C484.076 8.664 488.66 9.216 490.964 9.336L490.7 11.112C488.3 10.896 484.1 10.368 481.172 9.84L481.484 8.088ZM491.444 14.952C490.988 15.264 490.388 15.768 490.1 16.008C489.188 16.848 486.5 19.368 485.588 20.304C485.852 20.28 486.284 20.28 486.548 20.352C487.46 20.448 488.012 21.072 488.348 22.056C488.588 22.752 488.924 23.976 489.164 24.744C489.452 25.656 490.004 26.064 491.252 26.064C492.812 26.064 494.636 25.848 495.788 25.56L495.644 27.576C494.636 27.768 492.428 27.936 491.156 27.936C489.212 27.936 488.036 27.48 487.508 25.896C487.268 25.176 486.932 23.76 486.692 23.088C486.428 22.248 485.9 21.792 485.228 21.792C484.58 21.792 484.004 22.128 483.452 22.68C482.564 23.52 479.948 26.28 478.58 28.008L476.756 26.736C477.068 26.496 477.5 26.112 477.956 25.656C478.94 24.696 485.468 18.144 487.82 15.792C485.924 15.888 481.892 16.248 480.428 16.368C479.636 16.416 479.012 16.512 478.508 16.584L478.34 14.496C478.892 14.544 479.588 14.544 480.356 14.544C481.748 14.496 487.316 14.136 489.14 13.896C489.548 13.848 490.052 13.728 490.292 13.632L491.444 14.952ZM511.724 7.968C511.676 8.376 511.628 8.856 511.604 9.576C511.556 10.536 511.556 13.752 511.556 15.768C511.556 18.936 511.916 23.136 511.916 24.744C511.916 26.424 510.812 28.128 507.692 28.128C504.236 28.128 502.34 26.904 502.34 24.576C502.34 22.392 504.428 20.928 507.884 20.928C512.948 20.928 516.908 23.664 518.756 25.176L517.652 26.88C515.492 24.888 511.94 22.488 507.668 22.488C505.364 22.488 504.14 23.376 504.14 24.48C504.14 25.608 505.076 26.424 507.452 26.424C508.844 26.424 510.02 26.016 510.02 24.336C510.02 22.488 509.78 17.88 509.78 15.768C509.78 13.608 509.78 11.088 509.78 9.408C509.78 9 509.756 8.28 509.684 7.968H511.724ZM502.556 10.56C504.092 10.848 507.092 11.088 508.676 11.088C511.724 11.088 514.94 10.872 518.06 10.368V12.12C515.348 12.432 511.916 12.744 508.7 12.744C507.044 12.744 504.092 12.528 502.58 12.336L502.556 10.56ZM502.436 15.672C504.14 15.936 506.876 16.104 508.46 16.104C511.94 16.104 515.132 15.864 518.252 15.408V17.208C514.988 17.616 512.06 17.784 508.46 17.784C506.804 17.784 504.164 17.664 502.46 17.472L502.436 15.672ZM530.156 8.304C530.036 9.096 529.964 9.936 529.916 10.728C529.82 13.44 529.628 19.128 529.628 22.704C529.628 25.344 531.284 26.256 533.564 26.256C537.956 26.256 540.452 23.808 542.18 21.312L543.524 22.944C541.892 25.224 538.772 28.224 533.516 28.224C530.06 28.224 527.684 26.808 527.684 22.872C527.684 19.32 527.924 13.248 527.924 10.728C527.924 9.84 527.852 9 527.708 8.304H530.156ZM558.884 12.12C558.788 12.48 558.716 13.416 558.716 14.064C558.716 14.856 558.716 16.752 558.716 18.048C558.716 20.088 559.004 23.952 559.004 25.584C559.004 27.144 558.02 28.536 555.404 28.536C552.572 28.536 550.58 27.456 550.58 25.32C550.58 23.328 552.38 22.032 555.692 22.032C559.7 22.032 563.084 24.168 565.004 25.896L563.972 27.576C562.052 25.608 558.908 23.544 555.5 23.544C553.58 23.544 552.26 24.144 552.26 25.248C552.26 26.184 553.34 26.904 555.188 26.904C556.508 26.904 557.18 26.16 557.18 25.008C557.18 23.4 556.964 19.992 556.964 17.928C556.964 16.92 556.964 14.904 556.964 14.088C556.964 13.392 556.892 12.456 556.796 12.12H558.884ZM557.852 15.792C559.148 15.792 562.628 15.648 564.692 15.408L564.74 17.088C562.7 17.28 559.196 17.424 557.876 17.424L557.852 15.792ZM587.252 19.032C587.252 16.992 585.62 15.576 583.148 15.576C580.388 15.576 578.012 16.368 576.62 16.776C575.876 16.992 575.156 17.256 574.58 17.496L573.98 15.288C574.652 15.24 575.444 15.072 576.188 14.928C577.868 14.544 580.58 13.776 583.364 13.776C586.772 13.776 589.292 15.672 589.292 19.104C589.292 24.312 584.636 27.216 578.42 28.176L577.316 26.352C583.148 25.608 587.252 23.328 587.252 19.032ZM577.172 8.208C579.836 8.808 585.044 9.312 587.372 9.336L587.084 11.184C584.42 10.992 579.596 10.512 576.884 10.032L577.172 8.208ZM597.222 21.168C599.238 21.168 600.87 22.8 600.87 24.816C600.87 26.832 599.238 28.464 597.222 28.464C595.206 28.464 593.55 26.832 593.55 24.816C593.55 22.8 595.206 21.168 597.222 21.168ZM597.222 27.24C598.566 27.24 599.646 26.16 599.646 24.816C599.646 23.472 598.566 22.392 597.222 22.392C595.878 22.392 594.774 23.472 594.774 24.816C594.774 26.16 595.878 27.24 597.222 27.24ZM623.46 12.864H645.252V14.616H623.46V12.864ZM627.996 25.416H644.436V27.144H627.996V25.416ZM634.164 19.632H640.5V21.336H634.164V19.632ZM627.06 7.488H628.908V28.944H627.06V7.488ZM633.372 6.984H635.196V22.512H633.372V6.984ZM639.708 7.248H641.508V22.392H639.708V7.248ZM651.876 13.152V15.768H664.74V13.152H651.876ZM651.876 9.144V11.712H664.74V9.144H651.876ZM650.076 7.632H666.588V17.256H650.076V7.632ZM660.972 16.272C662.652 18.6 666.036 20.544 669.396 21.432C668.988 21.792 668.46 22.488 668.196 22.968C664.764 21.864 661.332 19.584 659.436 16.848L660.972 16.272ZM655.788 16.272L657.348 16.92C655.428 19.584 651.9 21.888 648.612 23.064C648.324 22.608 647.796 21.936 647.388 21.576C650.628 20.64 654.06 18.576 655.788 16.272ZM653.796 20.496H655.62V21.984C655.62 24.288 655.044 27.192 650.388 29.064C650.124 28.608 649.548 27.984 649.14 27.624C653.364 26.04 653.796 23.712 653.796 21.936V20.496ZM657.372 8.424H659.196V16.584H657.372V8.424ZM661.428 20.496H663.276V28.872H661.428V20.496ZM681.372 8.04C681.156 8.976 680.892 10.296 680.268 11.904C679.668 13.368 678.78 14.976 677.82 16.224C678.756 15.672 680.124 15.336 681.18 15.336C683.028 15.336 684.468 16.44 684.468 18.384C684.468 19.632 684.516 22.392 684.54 23.88H682.692C682.788 22.608 682.812 20.136 682.788 18.888C682.764 17.496 681.804 16.848 680.556 16.848C679.02 16.848 677.508 17.616 676.404 18.6C675.708 19.272 675.036 20.136 674.244 21.12L672.588 19.896C676.044 16.584 677.652 13.8 678.468 11.76C678.996 10.44 679.332 9 679.404 7.872L681.372 8.04ZM673.14 10.632C674.436 10.8 676.092 10.872 677.196 10.872C680.436 10.872 684.588 10.68 687.972 10.08V11.856C684.612 12.36 680.148 12.576 677.1 12.576C676.068 12.576 674.484 12.528 673.14 12.432V10.632ZM691.476 16.416C690.876 16.608 690.012 16.944 689.364 17.184C687.66 17.856 685.38 18.768 683.052 19.968C680.676 21.216 678.996 22.512 678.996 24.168C678.996 26.04 680.844 26.328 683.316 26.328C685.188 26.328 687.78 26.112 689.892 25.728L689.82 27.672C687.996 27.888 685.332 28.08 683.244 28.08C679.836 28.08 677.076 27.336 677.076 24.432C677.076 21.504 680.052 19.704 682.908 18.24C685.188 17.064 687.132 16.32 688.716 15.576C689.436 15.24 690.036 14.976 690.708 14.64L691.476 16.416ZM695.844 9.24H716.892V10.944H695.844V9.24ZM705.372 6.864H707.22V9.912H705.372V6.864ZM708.612 9.912H710.364V16.224C710.364 17.136 710.22 17.592 709.524 17.856C708.876 18.12 707.772 18.144 706.164 18.144C706.092 17.64 705.876 17.016 705.684 16.512C706.86 16.56 707.892 16.56 708.228 16.536C708.54 16.536 708.612 16.464 708.612 16.2V9.912ZM703.596 9.72H705.276V11.064C705.276 13.536 704.916 16.728 701.1 19.032C700.836 18.648 700.212 18.072 699.804 17.808C703.284 15.792 703.596 13.056 703.596 11.04V9.72ZM711.612 12.888L713.028 12.048C714.564 13.44 716.436 15.408 717.3 16.728L715.788 17.664C714.996 16.344 713.172 14.328 711.612 12.888ZM699.468 12.168L701.172 12.648C700.164 14.448 698.412 16.32 696.66 17.472C696.348 17.136 695.772 16.656 695.412 16.392C697.068 15.384 698.724 13.68 699.468 12.168ZM702.324 20.688C704.82 24.552 710.364 26.736 717.396 27.312C717.012 27.72 716.556 28.464 716.34 28.992C709.116 28.2 703.668 25.752 700.74 21.24L702.324 20.688ZM703.716 17.688L705.636 18.072C703.836 20.496 701.076 22.752 697.188 24.432C696.924 24.024 696.42 23.4 696.036 23.112C699.732 21.696 702.348 19.608 703.716 17.688ZM702.996 19.512H711.972V21H701.676L702.996 19.512ZM711.492 19.512H711.9L712.236 19.44L713.388 20.256C710.34 25.584 703.5 27.984 696.324 28.992C696.18 28.56 695.772 27.768 695.436 27.408C702.444 26.592 708.948 24.408 711.492 19.824V19.512ZM725.82 8.088C728.412 8.664 732.996 9.216 735.3 9.336L735.036 11.112C732.636 10.896 728.436 10.368 725.508 9.84L725.82 8.088ZM735.78 14.952C735.324 15.264 734.724 15.768 734.436 16.008C733.524 16.848 730.836 19.368 729.924 20.304C730.188 20.28 730.62 20.28 730.884 20.352C731.796 20.448 732.348 21.072 732.684 22.056C732.924 22.752 733.26 23.976 733.5 24.744C733.788 25.656 734.34 26.064 735.588 26.064C737.148 26.064 738.972 25.848 740.124 25.56L739.98 27.576C738.972 27.768 736.764 27.936 735.492 27.936C733.548 27.936 732.372 27.48 731.844 25.896C731.604 25.176 731.268 23.76 731.028 23.088C730.764 22.248 730.236 21.792 729.564 21.792C728.916 21.792 728.34 22.128 727.788 22.68C726.9 23.52 724.284 26.28 722.916 28.008L721.092 26.736C721.404 26.496 721.836 26.112 722.292 25.656C723.276 24.696 729.804 18.144 732.156 15.792C730.26 15.888 726.228 16.248 724.764 16.368C723.972 16.416 723.348 16.512 722.844 16.584L722.676 14.496C723.228 14.544 723.924 14.544 724.692 14.544C726.084 14.496 731.652 14.136 733.476 13.896C733.884 13.848 734.388 13.728 734.628 13.632L735.78 14.952ZM756.06 7.968C756.012 8.376 755.964 8.856 755.94 9.576C755.892 10.536 755.892 13.752 755.892 15.768C755.892 18.936 756.252 23.136 756.252 24.744C756.252 26.424 755.148 28.128 752.028 28.128C748.572 28.128 746.676 26.904 746.676 24.576C746.676 22.392 748.764 20.928 752.22 20.928C757.284 20.928 761.244 23.664 763.092 25.176L761.988 26.88C759.828 24.888 756.276 22.488 752.004 22.488C749.7 22.488 748.476 23.376 748.476 24.48C748.476 25.608 749.412 26.424 751.788 26.424C753.18 26.424 754.356 26.016 754.356 24.336C754.356 22.488 754.116 17.88 754.116 15.768C754.116 13.608 754.116 11.088 754.116 9.408C754.116 9 754.092 8.28 754.02 7.968H756.06ZM746.892 10.56C748.428 10.848 751.428 11.088 753.012 11.088C756.06 11.088 759.276 10.872 762.396 10.368V12.12C759.684 12.432 756.252 12.744 753.036 12.744C751.38 12.744 748.428 12.528 746.916 12.336L746.892 10.56ZM746.772 15.672C748.476 15.936 751.212 16.104 752.796 16.104C756.276 16.104 759.468 15.864 762.588 15.408V17.208C759.324 17.616 756.396 17.784 752.796 17.784C751.14 17.784 748.5 17.664 746.796 17.472L746.772 15.672ZM774.492 8.304C774.372 9.096 774.3 9.936 774.252 10.728C774.156 13.44 773.964 19.128 773.964 22.704C773.964 25.344 775.62 26.256 777.9 26.256C782.292 26.256 784.788 23.808 786.516 21.312L787.86 22.944C786.228 25.224 783.108 28.224 777.852 28.224C774.396 28.224 772.02 26.808 772.02 22.872C772.02 19.32 772.26 13.248 772.26 10.728C772.26 9.84 772.188 9 772.044 8.304H774.492ZM803.22 12.12C803.124 12.48 803.052 13.416 803.052 14.064C803.052 14.856 803.052 16.752 803.052 18.048C803.052 20.088 803.34 23.952 803.34 25.584C803.34 27.144 802.356 28.536 799.74 28.536C796.908 28.536 794.916 27.456 794.916 25.32C794.916 23.328 796.716 22.032 800.028 22.032C804.036 22.032 807.42 24.168 809.34 25.896L808.308 27.576C806.388 25.608 803.244 23.544 799.836 23.544C797.916 23.544 796.596 24.144 796.596 25.248C796.596 26.184 797.676 26.904 799.524 26.904C800.844 26.904 801.516 26.16 801.516 25.008C801.516 23.4 801.3 19.992 801.3 17.928C801.3 16.92 801.3 14.904 801.3 14.088C801.3 13.392 801.228 12.456 801.132 12.12H803.22ZM802.188 15.792C803.484 15.792 806.964 15.648 809.028 15.408L809.076 17.088C807.036 17.28 803.532 17.424 802.212 17.424L802.188 15.792ZM831.588 19.032C831.588 16.992 829.956 15.576 827.484 15.576C824.724 15.576 822.348 16.368 820.956 16.776C820.212 16.992 819.492 17.256 818.916 17.496L818.316 15.288C818.988 15.24 819.78 15.072 820.524 14.928C822.204 14.544 824.916 13.776 827.7 13.776C831.108 13.776 833.628 15.672 833.628 19.104C833.628 24.312 828.972 27.216 822.756 28.176L821.652 26.352C827.484 25.608 831.588 23.328 831.588 19.032ZM821.508 8.208C824.172 8.808 829.38 9.312 831.708 9.336L831.42 11.184C828.756 10.992 823.932 10.512 821.22 10.032L821.508 8.208ZM841.558 21.168C843.574 21.168 845.206 22.8 845.206 24.816C845.206 26.832 843.574 28.464 841.558 28.464C839.542 28.464 837.886 26.832 837.886 24.816C837.886 22.8 839.542 21.168 841.558 21.168ZM841.558 27.24C842.902 27.24 843.982 26.16 843.982 24.816C843.982 23.472 842.902 22.392 841.558 22.392C840.214 22.392 839.11 23.472 839.11 24.816C839.11 26.16 840.214 27.24 841.558 27.24ZM867.796 12.864H889.588V14.616H867.796V12.864ZM872.332 25.416H888.772V27.144H872.332V25.416ZM878.5 19.632H884.836V21.336H878.5V19.632ZM871.396 7.488H873.244V28.944H871.396V7.488ZM877.708 6.984H879.532V22.512H877.708V6.984ZM884.044 7.248H885.844V22.392H884.044V7.248ZM896.212 13.152V15.768H909.076V13.152H896.212ZM896.212 9.144V11.712H909.076V9.144H896.212ZM894.412 7.632H910.924V17.256H894.412V7.632ZM905.308 16.272C906.988 18.6 910.372 20.544 913.732 21.432C913.324 21.792 912.796 22.488 912.532 22.968C909.1 21.864 905.668 19.584 903.772 16.848L905.308 16.272ZM900.124 16.272L901.684 16.92C899.764 19.584 896.236 21.888 892.948 23.064C892.66 22.608 892.132 21.936 891.724 21.576C894.964 20.64 898.396 18.576 900.124 16.272ZM898.132 20.496H899.956V21.984C899.956 24.288 899.38 27.192 894.724 29.064C894.46 28.608 893.884 27.984 893.476 27.624C897.7 26.04 898.132 23.712 898.132 21.936V20.496ZM901.708 8.424H903.532V16.584H901.708V8.424ZM905.764 20.496H907.612V28.872H905.764V20.496ZM925.708 8.04C925.492 8.976 925.228 10.296 924.604 11.904C924.004 13.368 923.116 14.976 922.156 16.224C923.092 15.672 924.46 15.336 925.516 15.336C927.364 15.336 928.804 16.44 928.804 18.384C928.804 19.632 928.852 22.392 928.876 23.88H927.028C927.124 22.608 927.148 20.136 927.124 18.888C927.1 17.496 926.14 16.848 924.892 16.848C923.356 16.848 921.844 17.616 920.74 18.6C920.044 19.272 919.372 20.136 918.58 21.12L916.924 19.896C920.38 16.584 921.988 13.8 922.804 11.76C923.332 10.44 923.668 9 923.74 7.872L925.708 8.04ZM917.476 10.632C918.772 10.8 920.428 10.872 921.532 10.872C924.772 10.872 928.924 10.68 932.308 10.08V11.856C928.948 12.36 924.484 12.576 921.436 12.576C920.404 12.576 918.82 12.528 917.476 12.432V10.632ZM935.812 16.416C935.212 16.608 934.348 16.944 933.7 17.184C931.996 17.856 929.716 18.768 927.388 19.968C925.012 21.216 923.332 22.512 923.332 24.168C923.332 26.04 925.18 26.328 927.652 26.328C929.524 26.328 932.116 26.112 934.228 25.728L934.156 27.672C932.332 27.888 929.668 28.08 927.58 28.08C924.172 28.08 921.412 27.336 921.412 24.432C921.412 21.504 924.388 19.704 927.244 18.24C929.524 17.064 931.468 16.32 933.052 15.576C933.772 15.24 934.372 14.976 935.044 14.64L935.812 16.416ZM940.18 9.24H961.228V10.944H940.18V9.24ZM949.708 6.864H951.556V9.912H949.708V6.864ZM952.948 9.912H954.7V16.224C954.7 17.136 954.556 17.592 953.86 17.856C953.212 18.12 952.108 18.144 950.5 18.144C950.428 17.64 950.212 17.016 950.02 16.512C951.196 16.56 952.228 16.56 952.564 16.536C952.876 16.536 952.948 16.464 952.948 16.2V9.912ZM947.932 9.72H949.612V11.064C949.612 13.536 949.252 16.728 945.436 19.032C945.172 18.648 944.548 18.072 944.14 17.808C947.62 15.792 947.932 13.056 947.932 11.04V9.72ZM955.948 12.888L957.364 12.048C958.9 13.44 960.772 15.408 961.636 16.728L960.124 17.664C959.332 16.344 957.508 14.328 955.948 12.888ZM943.804 12.168L945.508 12.648C944.5 14.448 942.748 16.32 940.996 17.472C940.684 17.136 940.108 16.656 939.748 16.392C941.404 15.384 943.06 13.68 943.804 12.168ZM946.66 20.688C949.156 24.552 954.7 26.736 961.732 27.312C961.348 27.72 960.892 28.464 960.676 28.992C953.452 28.2 948.004 25.752 945.076 21.24L946.66 20.688ZM948.052 17.688L949.972 18.072C948.172 20.496 945.412 22.752 941.524 24.432C941.26 24.024 940.756 23.4 940.372 23.112C944.068 21.696 946.684 19.608 948.052 17.688ZM947.332 19.512H956.308V21H946.012L947.332 19.512ZM955.828 19.512H956.236L956.572 19.44L957.724 20.256C954.676 25.584 947.836 27.984 940.66 28.992C940.516 28.56 940.108 27.768 939.772 27.408C946.78 26.592 953.284 24.408 955.828 19.824V19.512ZM970.156 8.088C972.748 8.664 977.332 9.216 979.636 9.336L979.372 11.112C976.972 10.896 972.772 10.368 969.844 9.84L970.156 8.088ZM980.116 14.952C979.66 15.264 979.06 15.768 978.772 16.008C977.86 16.848 975.172 19.368 974.26 20.304C974.524 20.28 974.956 20.28 975.22 20.352C976.132 20.448 976.684 21.072 977.02 22.056C977.26 22.752 977.596 23.976 977.836 24.744C978.124 25.656 978.676 26.064 979.924 26.064C981.484 26.064 983.308 25.848 984.46 25.56L984.316 27.576C983.308 27.768 981.1 27.936 979.828 27.936C977.884 27.936 976.708 27.48 976.18 25.896C975.94 25.176 975.604 23.76 975.364 23.088C975.1 22.248 974.572 21.792 973.9 21.792C973.252 21.792 972.676 22.128 972.124 22.68C971.236 23.52 968.62 26.28 967.252 28.008L965.428 26.736C965.74 26.496 966.172 26.112 966.628 25.656C967.612 24.696 974.14 18.144 976.492 15.792C974.596 15.888 970.564 16.248 969.1 16.368C968.308 16.416 967.684 16.512 967.18 16.584L967.012 14.496C967.564 14.544 968.26 14.544 969.028 14.544C970.42 14.496 975.988 14.136 977.812 13.896C978.22 13.848 978.724 13.728 978.964 13.632L980.116 14.952ZM1000.4 7.968C1000.35 8.376 1000.3 8.856 1000.28 9.576C1000.23 10.536 1000.23 13.752 1000.23 15.768C1000.23 18.936 1000.59 23.136 1000.59 24.744C1000.59 26.424 999.484 28.128 996.364 28.128C992.908 28.128 991.012 26.904 991.012 24.576C991.012 22.392 993.1 20.928 996.556 20.928C1001.62 20.928 1005.58 23.664 1007.43 25.176L1006.32 26.88C1004.16 24.888 1000.61 22.488 996.34 22.488C994.036 22.488 992.812 23.376 992.812 24.48C992.812 25.608 993.748 26.424 996.124 26.424C997.516 26.424 998.692 26.016 998.692 24.336C998.692 22.488 998.452 17.88 998.452 15.768C998.452 13.608 998.452 11.088 998.452 9.408C998.452 9 998.428 8.28 998.356 7.968H1000.4ZM991.228 10.56C992.764 10.848 995.764 11.088 997.348 11.088C1000.4 11.088 1003.61 10.872 1006.73 10.368V12.12C1004.02 12.432 1000.59 12.744 997.372 12.744C995.716 12.744 992.764 12.528 991.252 12.336L991.228 10.56ZM991.108 15.672C992.812 15.936 995.548 16.104 997.132 16.104C1000.61 16.104 1003.8 15.864 1006.92 15.408V17.208C1003.66 17.616 1000.73 17.784 997.132 17.784C995.476 17.784 992.836 17.664 991.132 17.472L991.108 15.672ZM1018.83 8.304C1018.71 9.096 1018.64 9.936 1018.59 10.728C1018.49 13.44 1018.3 19.128 1018.3 22.704C1018.3 25.344 1019.96 26.256 1022.24 26.256C1026.63 26.256 1029.12 23.808 1030.85 21.312L1032.2 22.944C1030.56 25.224 1027.44 28.224 1022.19 28.224C1018.73 28.224 1016.36 26.808 1016.36 22.872C1016.36 19.32 1016.6 13.248 1016.6 10.728C1016.6 9.84 1016.52 9 1016.38 8.304H1018.83ZM1047.56 12.12C1047.46 12.48 1047.39 13.416 1047.39 14.064C1047.39 14.856 1047.39 16.752 1047.39 18.048C1047.39 20.088 1047.68 23.952 1047.68 25.584C1047.68 27.144 1046.69 28.536 1044.08 28.536C1041.24 28.536 1039.25 27.456 1039.25 25.32C1039.25 23.328 1041.05 22.032 1044.36 22.032C1048.37 22.032 1051.76 24.168 1053.68 25.896L1052.64 27.576C1050.72 25.608 1047.58 23.544 1044.17 23.544C1042.25 23.544 1040.93 24.144 1040.93 25.248C1040.93 26.184 1042.01 26.904 1043.86 26.904C1045.18 26.904 1045.85 26.16 1045.85 25.008C1045.85 23.4 1045.64 19.992 1045.64 17.928C1045.64 16.92 1045.64 14.904 1045.64 14.088C1045.64 13.392 1045.56 12.456 1045.47 12.12H1047.56ZM1046.52 15.792C1047.82 15.792 1051.3 15.648 1053.36 15.408L1053.41 17.088C1051.37 17.28 1047.87 17.424 1046.55 17.424L1046.52 15.792ZM1075.92 19.032C1075.92 16.992 1074.29 15.576 1071.82 15.576C1069.06 15.576 1066.68 16.368 1065.29 16.776C1064.55 16.992 1063.83 17.256 1063.25 17.496L1062.65 15.288C1063.32 15.24 1064.12 15.072 1064.86 14.928C1066.54 14.544 1069.25 13.776 1072.04 13.776C1075.44 13.776 1077.96 15.672 1077.96 19.104C1077.96 24.312 1073.31 27.216 1067.09 28.176L1065.99 26.352C1071.82 25.608 1075.92 23.328 1075.92 19.032ZM1065.84 8.208C1068.51 8.808 1073.72 9.312 1076.04 9.336L1075.76 11.184C1073.09 10.992 1068.27 10.512 1065.56 10.032L1065.84 8.208ZM1085.89 21.168C1087.91 21.168 1089.54 22.8 1089.54 24.816C1089.54 26.832 1087.91 28.464 1085.89 28.464C1083.88 28.464 1082.22 26.832 1082.22 24.816C1082.22 22.8 1083.88 21.168 1085.89 21.168ZM1085.89 27.24C1087.24 27.24 1088.32 26.16 1088.32 24.816C1088.32 23.472 1087.24 22.392 1085.89 22.392C1084.55 22.392 1083.45 23.472 1083.45 24.816C1083.45 26.16 1084.55 27.24 1085.89 27.24ZM1112.13 12.864H1133.92V14.616H1112.13V12.864ZM1116.67 25.416H1133.11V27.144H1116.67V25.416ZM1122.84 19.632H1129.17V21.336H1122.84V19.632ZM1115.73 7.488H1117.58V28.944H1115.73V7.488ZM1122.04 6.984H1123.87V22.512H1122.04V6.984ZM1128.38 7.248H1130.18V22.392H1128.38V7.248ZM1140.55 13.152V15.768H1153.41V13.152H1140.55ZM1140.55 9.144V11.712H1153.41V9.144H1140.55ZM1138.75 7.632H1155.26V17.256H1138.75V7.632ZM1149.64 16.272C1151.32 18.6 1154.71 20.544 1158.07 21.432C1157.66 21.792 1157.13 22.488 1156.87 22.968C1153.44 21.864 1150 19.584 1148.11 16.848L1149.64 16.272ZM1144.46 16.272L1146.02 16.92C1144.1 19.584 1140.57 21.888 1137.28 23.064C1137 22.608 1136.47 21.936 1136.06 21.576C1139.3 20.64 1142.73 18.576 1144.46 16.272ZM1142.47 20.496H1144.29V21.984C1144.29 24.288 1143.72 27.192 1139.06 29.064C1138.8 28.608 1138.22 27.984 1137.81 27.624C1142.04 26.04 1142.47 23.712 1142.47 21.936V20.496ZM1146.04 8.424H1147.87V16.584H1146.04V8.424ZM1150.1 20.496H1151.95V28.872H1150.1V20.496ZM1170.04 8.04C1169.83 8.976 1169.56 10.296 1168.94 11.904C1168.34 13.368 1167.45 14.976 1166.49 16.224C1167.43 15.672 1168.8 15.336 1169.85 15.336C1171.7 15.336 1173.14 16.44 1173.14 18.384C1173.14 19.632 1173.19 22.392 1173.21 23.88H1171.36C1171.46 22.608 1171.48 20.136 1171.46 18.888C1171.44 17.496 1170.48 16.848 1169.23 16.848C1167.69 16.848 1166.18 17.616 1165.08 18.6C1164.38 19.272 1163.71 20.136 1162.92 21.12L1161.26 19.896C1164.72 16.584 1166.32 13.8 1167.14 11.76C1167.67 10.44 1168 9 1168.08 7.872L1170.04 8.04ZM1161.81 10.632C1163.11 10.8 1164.76 10.872 1165.87 10.872C1169.11 10.872 1173.26 10.68 1176.64 10.08V11.856C1173.28 12.36 1168.82 12.576 1165.77 12.576C1164.74 12.576 1163.16 12.528 1161.81 12.432V10.632ZM1180.15 16.416C1179.55 16.608 1178.68 16.944 1178.04 17.184C1176.33 17.856 1174.05 18.768 1171.72 19.968C1169.35 21.216 1167.67 22.512 1167.67 24.168C1167.67 26.04 1169.52 26.328 1171.99 26.328C1173.86 26.328 1176.45 26.112 1178.56 25.728L1178.49 27.672C1176.67 27.888 1174 28.08 1171.92 28.08C1168.51 28.08 1165.75 27.336 1165.75 24.432C1165.75 21.504 1168.72 19.704 1171.58 18.24C1173.86 17.064 1175.8 16.32 1177.39 15.576C1178.11 15.24 1178.71 14.976 1179.38 14.64L1180.15 16.416ZM1184.52 9.24H1205.56V10.944H1184.52V9.24ZM1194.04 6.864H1195.89V9.912H1194.04V6.864ZM1197.28 9.912H1199.04V16.224C1199.04 17.136 1198.89 17.592 1198.2 17.856C1197.55 18.12 1196.44 18.144 1194.84 18.144C1194.76 17.64 1194.55 17.016 1194.36 16.512C1195.53 16.56 1196.56 16.56 1196.9 16.536C1197.21 16.536 1197.28 16.464 1197.28 16.2V9.912ZM1192.27 9.72H1193.95V11.064C1193.95 13.536 1193.59 16.728 1189.77 19.032C1189.51 18.648 1188.88 18.072 1188.48 17.808C1191.96 15.792 1192.27 13.056 1192.27 11.04V9.72ZM1200.28 12.888L1201.7 12.048C1203.24 13.44 1205.11 15.408 1205.97 16.728L1204.46 17.664C1203.67 16.344 1201.84 14.328 1200.28 12.888ZM1188.14 12.168L1189.84 12.648C1188.84 14.448 1187.08 16.32 1185.33 17.472C1185.02 17.136 1184.44 16.656 1184.08 16.392C1185.74 15.384 1187.4 13.68 1188.14 12.168ZM1191 20.688C1193.49 24.552 1199.04 26.736 1206.07 27.312C1205.68 27.72 1205.23 28.464 1205.01 28.992C1197.79 28.2 1192.34 25.752 1189.41 21.24L1191 20.688ZM1192.39 17.688L1194.31 18.072C1192.51 20.496 1189.75 22.752 1185.86 24.432C1185.6 24.024 1185.09 23.4 1184.71 23.112C1188.4 21.696 1191.02 19.608 1192.39 17.688ZM1191.67 19.512H1200.64V21H1190.35L1191.67 19.512ZM1200.16 19.512H1200.57L1200.91 19.44L1202.06 20.256C1199.01 25.584 1192.17 27.984 1185 28.992C1184.85 28.56 1184.44 27.768 1184.11 27.408C1191.12 26.592 1197.62 24.408 1200.16 19.824V19.512ZM1214.49 8.088C1217.08 8.664 1221.67 9.216 1223.97 9.336L1223.71 11.112C1221.31 10.896 1217.11 10.368 1214.18 9.84L1214.49 8.088ZM1224.45 14.952C1224 15.264 1223.4 15.768 1223.11 16.008C1222.2 16.848 1219.51 19.368 1218.6 20.304C1218.86 20.28 1219.29 20.28 1219.56 20.352C1220.47 20.448 1221.02 21.072 1221.36 22.056C1221.6 22.752 1221.93 23.976 1222.17 24.744C1222.46 25.656 1223.01 26.064 1224.26 26.064C1225.82 26.064 1227.64 25.848 1228.8 25.56L1228.65 27.576C1227.64 27.768 1225.44 27.936 1224.16 27.936C1222.22 27.936 1221.04 27.48 1220.52 25.896C1220.28 25.176 1219.94 23.76 1219.7 23.088C1219.44 22.248 1218.91 21.792 1218.24 21.792C1217.59 21.792 1217.01 22.128 1216.46 22.68C1215.57 23.52 1212.96 26.28 1211.59 28.008L1209.76 26.736C1210.08 26.496 1210.51 26.112 1210.96 25.656C1211.95 24.696 1218.48 18.144 1220.83 15.792C1218.93 15.888 1214.9 16.248 1213.44 16.368C1212.64 16.416 1212.02 16.512 1211.52 16.584L1211.35 14.496C1211.9 14.544 1212.6 14.544 1213.36 14.544C1214.76 14.496 1220.32 14.136 1222.15 13.896C1222.56 13.848 1223.06 13.728 1223.3 13.632L1224.45 14.952ZM1244.73 7.968C1244.68 8.376 1244.64 8.856 1244.61 9.576C1244.56 10.536 1244.56 13.752 1244.56 15.768C1244.56 18.936 1244.92 23.136 1244.92 24.744C1244.92 26.424 1243.82 28.128 1240.7 28.128C1237.24 28.128 1235.35 26.904 1235.35 24.576C1235.35 22.392 1237.44 20.928 1240.89 20.928C1245.96 20.928 1249.92 23.664 1251.76 25.176L1250.66 26.88C1248.5 24.888 1244.95 22.488 1240.68 22.488C1238.37 22.488 1237.15 23.376 1237.15 24.48C1237.15 25.608 1238.08 26.424 1240.46 26.424C1241.85 26.424 1243.03 26.016 1243.03 24.336C1243.03 22.488 1242.79 17.88 1242.79 15.768C1242.79 13.608 1242.79 11.088 1242.79 9.408C1242.79 9 1242.76 8.28 1242.69 7.968H1244.73ZM1235.56 10.56C1237.1 10.848 1240.1 11.088 1241.68 11.088C1244.73 11.088 1247.95 10.872 1251.07 10.368V12.12C1248.36 12.432 1244.92 12.744 1241.71 12.744C1240.05 12.744 1237.1 12.528 1235.59 12.336L1235.56 10.56ZM1235.44 15.672C1237.15 15.936 1239.88 16.104 1241.47 16.104C1244.95 16.104 1248.14 15.864 1251.26 15.408V17.208C1248 17.616 1245.07 17.784 1241.47 17.784C1239.81 17.784 1237.17 17.664 1235.47 17.472L1235.44 15.672ZM1263.16 8.304C1263.04 9.096 1262.97 9.936 1262.92 10.728C1262.83 13.44 1262.64 19.128 1262.64 22.704C1262.64 25.344 1264.29 26.256 1266.57 26.256C1270.96 26.256 1273.46 23.808 1275.19 21.312L1276.53 22.944C1274.9 25.224 1271.78 28.224 1266.52 28.224C1263.07 28.224 1260.69 26.808 1260.69 22.872C1260.69 19.32 1260.93 13.248 1260.93 10.728C1260.93 9.84 1260.86 9 1260.72 8.304H1263.16ZM1291.89 12.12C1291.8 12.48 1291.72 13.416 1291.72 14.064C1291.72 14.856 1291.72 16.752 1291.72 18.048C1291.72 20.088 1292.01 23.952 1292.01 25.584C1292.01 27.144 1291.03 28.536 1288.41 28.536C1285.58 28.536 1283.59 27.456 1283.59 25.32C1283.59 23.328 1285.39 22.032 1288.7 22.032C1292.71 22.032 1296.09 24.168 1298.01 25.896L1296.98 27.576C1295.06 25.608 1291.92 23.544 1288.51 23.544C1286.59 23.544 1285.27 24.144 1285.27 25.248C1285.27 26.184 1286.35 26.904 1288.2 26.904C1289.52 26.904 1290.19 26.16 1290.19 25.008C1290.19 23.4 1289.97 19.992 1289.97 17.928C1289.97 16.92 1289.97 14.904 1289.97 14.088C1289.97 13.392 1289.9 12.456 1289.8 12.12H1291.89ZM1290.86 15.792C1292.16 15.792 1295.64 15.648 1297.7 15.408L1297.75 17.088C1295.71 17.28 1292.2 17.424 1290.88 17.424L1290.86 15.792ZM393.084 53.032C393.084 50.992 391.452 49.576 388.98 49.576C386.22 49.576 383.844 50.368 382.452 50.776C381.708 50.992 380.988 51.256 380.412 51.496L379.812 49.288C380.484 49.24 381.276 49.072 382.02 48.928C383.7 48.544 386.412 47.776 389.196 47.776C392.604 47.776 395.124 49.672 395.124 53.104C395.124 58.312 390.468 61.216 384.252 62.176L383.148 60.352C388.98 59.608 393.084 57.328 393.084 53.032ZM383.004 42.208C385.668 42.808 390.876 43.312 393.204 43.336L392.916 45.184C390.252 44.992 385.428 44.512 382.716 44.032L383.004 42.208ZM403.054 55.168C405.07 55.168 406.702 56.8 406.702 58.816C406.702 60.832 405.07 62.464 403.054 62.464C401.038 62.464 399.382 60.832 399.382 58.816C399.382 56.8 401.038 55.168 403.054 55.168ZM403.054 61.24C404.398 61.24 405.478 60.16 405.478 58.816C405.478 57.472 404.398 56.392 403.054 56.392C401.71 56.392 400.606 57.472 400.606 58.816C400.606 60.16 401.71 61.24 403.054 61.24ZM429.292 46.864H451.084V48.616H429.292V46.864ZM433.828 59.416H450.268V61.144H433.828V59.416ZM439.996 53.632H446.332V55.336H439.996V53.632ZM432.892 41.488H434.74V62.944H432.892V41.488ZM439.204 40.984H441.028V56.512H439.204V40.984ZM445.54 41.248H447.34V56.392H445.54V41.248ZM457.708 47.152V49.768H470.572V47.152H457.708ZM457.708 43.144V45.712H470.572V43.144H457.708ZM455.908 41.632H472.42V51.256H455.908V41.632ZM466.804 50.272C468.484 52.6 471.868 54.544 475.228 55.432C474.82 55.792 474.292 56.488 474.028 56.968C470.596 55.864 467.164 53.584 465.268 50.848L466.804 50.272ZM461.62 50.272L463.18 50.92C461.26 53.584 457.732 55.888 454.444 57.064C454.156 56.608 453.628 55.936 453.22 55.576C456.46 54.64 459.892 52.576 461.62 50.272ZM459.628 54.496H461.452V55.984C461.452 58.288 460.876 61.192 456.22 63.064C455.956 62.608 455.38 61.984 454.972 61.624C459.196 60.04 459.628 57.712 459.628 55.936V54.496ZM463.204 42.424H465.028V50.584H463.204V42.424ZM467.26 54.496H469.108V62.872H467.26V54.496ZM487.204 42.04C486.988 42.976 486.724 44.296 486.1 45.904C485.5 47.368 484.612 48.976 483.652 50.224C484.588 49.672 485.956 49.336 487.012 49.336C488.86 49.336 490.3 50.44 490.3 52.384C490.3 53.632 490.348 56.392 490.372 57.88H488.524C488.62 56.608 488.644 54.136 488.62 52.888C488.596 51.496 487.636 50.848 486.388 50.848C484.852 50.848 483.34 51.616 482.236 52.6C481.54 53.272 480.868 54.136 480.076 55.12L478.42 53.896C481.876 50.584 483.484 47.8 484.3 45.76C484.828 44.44 485.164 43 485.236 41.872L487.204 42.04ZM478.972 44.632C480.268 44.8 481.924 44.872 483.028 44.872C486.268 44.872 490.42 44.68 493.804 44.08V45.856C490.444 46.36 485.98 46.576 482.932 46.576C481.9 46.576 480.316 46.528 478.972 46.432V44.632ZM497.308 50.416C496.708 50.608 495.844 50.944 495.196 51.184C493.492 51.856 491.212 52.768 488.884 53.968C486.508 55.216 484.828 56.512 484.828 58.168C484.828 60.04 486.676 60.328 489.148 60.328C491.02 60.328 493.612 60.112 495.724 59.728L495.652 61.672C493.828 61.888 491.164 62.08 489.076 62.08C485.668 62.08 482.908 61.336 482.908 58.432C482.908 55.504 485.884 53.704 488.74 52.24C491.02 51.064 492.964 50.32 494.548 49.576C495.268 49.24 495.868 48.976 496.54 48.64L497.308 50.416ZM501.676 43.24H522.724V44.944H501.676V43.24ZM511.204 40.864H513.052V43.912H511.204V40.864ZM514.444 43.912H516.196V50.224C516.196 51.136 516.052 51.592 515.356 51.856C514.708 52.12 513.604 52.144 511.996 52.144C511.924 51.64 511.708 51.016 511.516 50.512C512.692 50.56 513.724 50.56 514.06 50.536C514.372 50.536 514.444 50.464 514.444 50.2V43.912ZM509.428 43.72H511.108V45.064C511.108 47.536 510.748 50.728 506.932 53.032C506.668 52.648 506.044 52.072 505.636 51.808C509.116 49.792 509.428 47.056 509.428 45.04V43.72ZM517.444 46.888L518.86 46.048C520.396 47.44 522.268 49.408 523.132 50.728L521.62 51.664C520.828 50.344 519.004 48.328 517.444 46.888ZM505.3 46.168L507.004 46.648C505.996 48.448 504.244 50.32 502.492 51.472C502.18 51.136 501.604 50.656 501.244 50.392C502.9 49.384 504.556 47.68 505.3 46.168ZM508.156 54.688C510.652 58.552 516.196 60.736 523.228 61.312C522.844 61.72 522.388 62.464 522.172 62.992C514.948 62.2 509.5 59.752 506.572 55.24L508.156 54.688ZM509.548 51.688L511.468 52.072C509.668 54.496 506.908 56.752 503.02 58.432C502.756 58.024 502.252 57.4 501.868 57.112C505.564 55.696 508.18 53.608 509.548 51.688ZM508.828 53.512H517.804V55H507.508L508.828 53.512ZM517.324 53.512H517.732L518.068 53.44L519.22 54.256C516.172 59.584 509.332 61.984 502.156 62.992C502.012 62.56 501.604 61.768 501.268 61.408C508.276 60.592 514.78 58.408 517.324 53.824V53.512ZM531.652 42.088C534.244 42.664 538.828 43.216 541.132 43.336L540.868 45.112C538.468 44.896 534.268 44.368 531.34 43.84L531.652 42.088ZM541.612 48.952C541.156 49.264 540.556 49.768 540.268 50.008C539.356 50.848 536.668 53.368 535.756 54.304C536.02 54.28 536.452 54.28 536.716 54.352C537.628 54.448 538.18 55.072 538.516 56.056C538.756 56.752 539.092 57.976 539.332 58.744C539.62 59.656 540.172 60.064 541.42 60.064C542.98 60.064 544.804 59.848 545.956 59.56L545.812 61.576C544.804 61.768 542.596 61.936 541.324 61.936C539.38 61.936 538.204 61.48 537.676 59.896C537.436 59.176 537.1 57.76 536.86 57.088C536.596 56.248 536.068 55.792 535.396 55.792C534.748 55.792 534.172 56.128 533.62 56.68C532.732 57.52 530.116 60.28 528.748 62.008L526.924 60.736C527.236 60.496 527.668 60.112 528.124 59.656C529.108 58.696 535.636 52.144 537.988 49.792C536.092 49.888 532.06 50.248 530.596 50.368C529.804 50.416 529.18 50.512 528.676 50.584L528.508 48.496C529.06 48.544 529.756 48.544 530.524 48.544C531.916 48.496 537.484 48.136 539.308 47.896C539.716 47.848 540.22 47.728 540.46 47.632L541.612 48.952ZM561.892 41.968C561.844 42.376 561.796 42.856 561.772 43.576C561.724 44.536 561.724 47.752 561.724 49.768C561.724 52.936 562.084 57.136 562.084 58.744C562.084 60.424 560.98 62.128 557.86 62.128C554.404 62.128 552.508 60.904 552.508 58.576C552.508 56.392 554.596 54.928 558.052 54.928C563.116 54.928 567.076 57.664 568.924 59.176L567.82 60.88C565.66 58.888 562.108 56.488 557.836 56.488C555.532 56.488 554.308 57.376 554.308 58.48C554.308 59.608 555.244 60.424 557.62 60.424C559.012 60.424 560.188 60.016 560.188 58.336C560.188 56.488 559.948 51.88 559.948 49.768C559.948 47.608 559.948 45.088 559.948 43.408C559.948 43 559.924 42.28 559.852 41.968H561.892ZM552.724 44.56C554.26 44.848 557.26 45.088 558.844 45.088C561.892 45.088 565.108 44.872 568.228 44.368V46.12C565.516 46.432 562.084 46.744 558.868 46.744C557.212 46.744 554.26 46.528 552.748 46.336L552.724 44.56ZM552.604 49.672C554.308 49.936 557.044 50.104 558.628 50.104C562.108 50.104 565.3 49.864 568.42 49.408V51.208C565.156 51.616 562.228 51.784 558.628 51.784C556.972 51.784 554.332 51.664 552.628 51.472L552.604 49.672ZM580.324 42.304C580.204 43.096 580.132 43.936 580.084 44.728C579.988 47.44 579.796 53.128 579.796 56.704C579.796 59.344 581.452 60.256 583.732 60.256C588.124 60.256 590.62 57.808 592.348 55.312L593.692 56.944C592.06 59.224 588.94 62.224 583.684 62.224C580.228 62.224 577.852 60.808 577.852 56.872C577.852 53.32 578.092 47.248 578.092 44.728C578.092 43.84 578.02 43 577.876 42.304H580.324ZM609.052 46.12C608.956 46.48 608.884 47.416 608.884 48.064C608.884 48.856 608.884 50.752 608.884 52.048C608.884 54.088 609.172 57.952 609.172 59.584C609.172 61.144 608.188 62.536 605.572 62.536C602.74 62.536 600.748 61.456 600.748 59.32C600.748 57.328 602.548 56.032 605.86 56.032C609.868 56.032 613.252 58.168 615.172 59.896L614.14 61.576C612.22 59.608 609.076 57.544 605.668 57.544C603.748 57.544 602.428 58.144 602.428 59.248C602.428 60.184 603.508 60.904 605.356 60.904C606.676 60.904 607.348 60.16 607.348 59.008C607.348 57.4 607.132 53.992 607.132 51.928C607.132 50.92 607.132 48.904 607.132 48.088C607.132 47.392 607.06 46.456 606.964 46.12H609.052ZM608.02 49.792C609.316 49.792 612.796 49.648 614.86 49.408L614.908 51.088C612.868 51.28 609.364 51.424 608.044 51.424L608.02 49.792ZM637.42 53.032C637.42 50.992 635.788 49.576 633.316 49.576C630.556 49.576 628.18 50.368 626.788 50.776C626.044 50.992 625.324 51.256 624.748 51.496L624.148 49.288C624.82 49.24 625.612 49.072 626.356 48.928C628.036 48.544 630.748 47.776 633.532 47.776C636.94 47.776 639.46 49.672 639.46 53.104C639.46 58.312 634.804 61.216 628.588 62.176L627.484 60.352C633.316 59.608 637.42 57.328 637.42 53.032ZM627.34 42.208C630.004 42.808 635.212 43.312 637.54 43.336L637.252 45.184C634.588 44.992 629.764 44.512 627.052 44.032L627.34 42.208ZM647.39 55.168C649.406 55.168 651.038 56.8 651.038 58.816C651.038 60.832 649.406 62.464 647.39 62.464C645.374 62.464 643.718 60.832 643.718 58.816C643.718 56.8 645.374 55.168 647.39 55.168ZM647.39 61.24C648.734 61.24 649.814 60.16 649.814 58.816C649.814 57.472 648.734 56.392 647.39 56.392C646.046 56.392 644.942 57.472 644.942 58.816C644.942 60.16 646.046 61.24 647.39 61.24ZM673.628 46.864H695.42V48.616H673.628V46.864ZM678.164 59.416H694.604V61.144H678.164V59.416ZM684.332 53.632H690.668V55.336H684.332V53.632ZM677.228 41.488H679.076V62.944H677.228V41.488ZM683.54 40.984H685.364V56.512H683.54V40.984ZM689.876 41.248H691.676V56.392H689.876V41.248ZM702.044 47.152V49.768H714.908V47.152H702.044ZM702.044 43.144V45.712H714.908V43.144H702.044ZM700.244 41.632H716.756V51.256H700.244V41.632ZM711.14 50.272C712.82 52.6 716.204 54.544 719.564 55.432C719.156 55.792 718.628 56.488 718.364 56.968C714.932 55.864 711.5 53.584 709.604 50.848L711.14 50.272ZM705.956 50.272L707.516 50.92C705.596 53.584 702.068 55.888 698.78 57.064C698.492 56.608 697.964 55.936 697.556 55.576C700.796 54.64 704.228 52.576 705.956 50.272ZM703.964 54.496H705.788V55.984C705.788 58.288 705.212 61.192 700.556 63.064C700.292 62.608 699.716 61.984 699.308 61.624C703.532 60.04 703.964 57.712 703.964 55.936V54.496ZM707.54 42.424H709.364V50.584H707.54V42.424ZM711.596 54.496H713.444V62.872H711.596V54.496ZM731.54 42.04C731.324 42.976 731.06 44.296 730.436 45.904C729.836 47.368 728.948 48.976 727.988 50.224C728.924 49.672 730.292 49.336 731.348 49.336C733.196 49.336 734.636 50.44 734.636 52.384C734.636 53.632 734.684 56.392 734.708 57.88H732.86C732.956 56.608 732.98 54.136 732.956 52.888C732.932 51.496 731.972 50.848 730.724 50.848C729.188 50.848 727.676 51.616 726.572 52.6C725.876 53.272 725.204 54.136 724.412 55.12L722.756 53.896C726.212 50.584 727.82 47.8 728.636 45.76C729.164 44.44 729.5 43 729.572 41.872L731.54 42.04ZM723.308 44.632C724.604 44.8 726.26 44.872 727.364 44.872C730.604 44.872 734.756 44.68 738.14 44.08V45.856C734.78 46.36 730.316 46.576 727.268 46.576C726.236 46.576 724.652 46.528 723.308 46.432V44.632ZM741.644 50.416C741.044 50.608 740.18 50.944 739.532 51.184C737.828 51.856 735.548 52.768 733.22 53.968C730.844 55.216 729.164 56.512 729.164 58.168C729.164 60.04 731.012 60.328 733.484 60.328C735.356 60.328 737.948 60.112 740.06 59.728L739.988 61.672C738.164 61.888 735.5 62.08 733.412 62.08C730.004 62.08 727.244 61.336 727.244 58.432C727.244 55.504 730.22 53.704 733.076 52.24C735.356 51.064 737.3 50.32 738.884 49.576C739.604 49.24 740.204 48.976 740.876 48.64L741.644 50.416ZM746.012 43.24H767.06V44.944H746.012V43.24ZM755.54 40.864H757.388V43.912H755.54V40.864ZM758.78 43.912H760.532V50.224C760.532 51.136 760.388 51.592 759.692 51.856C759.044 52.12 757.94 52.144 756.332 52.144C756.26 51.64 756.044 51.016 755.852 50.512C757.028 50.56 758.06 50.56 758.396 50.536C758.708 50.536 758.78 50.464 758.78 50.2V43.912ZM753.764 43.72H755.444V45.064C755.444 47.536 755.084 50.728 751.268 53.032C751.004 52.648 750.38 52.072 749.972 51.808C753.452 49.792 753.764 47.056 753.764 45.04V43.72ZM761.78 46.888L763.196 46.048C764.732 47.44 766.604 49.408 767.468 50.728L765.956 51.664C765.164 50.344 763.34 48.328 761.78 46.888ZM749.636 46.168L751.34 46.648C750.332 48.448 748.58 50.32 746.828 51.472C746.516 51.136 745.94 50.656 745.58 50.392C747.236 49.384 748.892 47.68 749.636 46.168ZM752.492 54.688C754.988 58.552 760.532 60.736 767.564 61.312C767.18 61.72 766.724 62.464 766.508 62.992C759.284 62.2 753.836 59.752 750.908 55.24L752.492 54.688ZM753.884 51.688L755.804 52.072C754.004 54.496 751.244 56.752 747.356 58.432C747.092 58.024 746.588 57.4 746.204 57.112C749.9 55.696 752.516 53.608 753.884 51.688ZM753.164 53.512H762.14V55H751.844L753.164 53.512ZM761.66 53.512H762.068L762.404 53.44L763.556 54.256C760.508 59.584 753.668 61.984 746.492 62.992C746.348 62.56 745.94 61.768 745.604 61.408C752.612 60.592 759.116 58.408 761.66 53.824V53.512ZM775.988 42.088C778.58 42.664 783.164 43.216 785.468 43.336L785.204 45.112C782.804 44.896 778.604 44.368 775.676 43.84L775.988 42.088ZM785.948 48.952C785.492 49.264 784.892 49.768 784.604 50.008C783.692 50.848 781.004 53.368 780.092 54.304C780.356 54.28 780.788 54.28 781.052 54.352C781.964 54.448 782.516 55.072 782.852 56.056C783.092 56.752 783.428 57.976 783.668 58.744C783.956 59.656 784.508 60.064 785.756 60.064C787.316 60.064 789.14 59.848 790.292 59.56L790.148 61.576C789.14 61.768 786.932 61.936 785.66 61.936C783.716 61.936 782.54 61.48 782.012 59.896C781.772 59.176 781.436 57.76 781.196 57.088C780.932 56.248 780.404 55.792 779.732 55.792C779.084 55.792 778.508 56.128 777.956 56.68C777.068 57.52 774.452 60.28 773.084 62.008L771.26 60.736C771.572 60.496 772.004 60.112 772.46 59.656C773.444 58.696 779.972 52.144 782.324 49.792C780.428 49.888 776.396 50.248 774.932 50.368C774.14 50.416 773.516 50.512 773.012 50.584L772.844 48.496C773.396 48.544 774.092 48.544 774.86 48.544C776.252 48.496 781.82 48.136 783.644 47.896C784.052 47.848 784.556 47.728 784.796 47.632L785.948 48.952ZM806.228 41.968C806.18 42.376 806.132 42.856 806.108 43.576C806.06 44.536 806.06 47.752 806.06 49.768C806.06 52.936 806.42 57.136 806.42 58.744C806.42 60.424 805.316 62.128 802.196 62.128C798.74 62.128 796.844 60.904 796.844 58.576C796.844 56.392 798.932 54.928 802.388 54.928C807.452 54.928 811.412 57.664 813.26 59.176L812.156 60.88C809.996 58.888 806.444 56.488 802.172 56.488C799.868 56.488 798.644 57.376 798.644 58.48C798.644 59.608 799.58 60.424 801.956 60.424C803.348 60.424 804.524 60.016 804.524 58.336C804.524 56.488 804.284 51.88 804.284 49.768C804.284 47.608 804.284 45.088 804.284 43.408C804.284 43 804.26 42.28 804.188 41.968H806.228ZM797.06 44.56C798.596 44.848 801.596 45.088 803.18 45.088C806.228 45.088 809.444 44.872 812.564 44.368V46.12C809.852 46.432 806.42 46.744 803.204 46.744C801.548 46.744 798.596 46.528 797.084 46.336L797.06 44.56ZM796.94 49.672C798.644 49.936 801.38 50.104 802.964 50.104C806.444 50.104 809.636 49.864 812.756 49.408V51.208C809.492 51.616 806.564 51.784 802.964 51.784C801.308 51.784 798.668 51.664 796.964 51.472L796.94 49.672ZM824.66 42.304C824.54 43.096 824.468 43.936 824.42 44.728C824.324 47.44 824.132 53.128 824.132 56.704C824.132 59.344 825.788 60.256 828.068 60.256C832.46 60.256 834.956 57.808 836.684 55.312L838.028 56.944C836.396 59.224 833.276 62.224 828.02 62.224C824.564 62.224 822.188 60.808 822.188 56.872C822.188 53.32 822.428 47.248 822.428 44.728C822.428 43.84 822.356 43 822.212 42.304H824.66ZM853.388 46.12C853.292 46.48 853.22 47.416 853.22 48.064C853.22 48.856 853.22 50.752 853.22 52.048C853.22 54.088 853.508 57.952 853.508 59.584C853.508 61.144 852.524 62.536 849.908 62.536C847.076 62.536 845.084 61.456 845.084 59.32C845.084 57.328 846.884 56.032 850.196 56.032C854.204 56.032 857.588 58.168 859.508 59.896L858.476 61.576C856.556 59.608 853.412 57.544 850.004 57.544C848.084 57.544 846.764 58.144 846.764 59.248C846.764 60.184 847.844 60.904 849.692 60.904C851.012 60.904 851.684 60.16 851.684 59.008C851.684 57.4 851.468 53.992 851.468 51.928C851.468 50.92 851.468 48.904 851.468 48.088C851.468 47.392 851.396 46.456 851.3 46.12H853.388ZM852.356 49.792C853.652 49.792 857.132 49.648 859.196 49.408L859.244 51.088C857.204 51.28 853.7 51.424 852.38 51.424L852.356 49.792ZM881.756 53.032C881.756 50.992 880.124 49.576 877.652 49.576C874.892 49.576 872.516 50.368 871.124 50.776C870.38 50.992 869.66 51.256 869.084 51.496L868.484 49.288C869.156 49.24 869.948 49.072 870.692 48.928C872.372 48.544 875.084 47.776 877.868 47.776C881.276 47.776 883.796 49.672 883.796 53.104C883.796 58.312 879.14 61.216 872.924 62.176L871.82 60.352C877.652 59.608 881.756 57.328 881.756 53.032ZM871.676 42.208C874.34 42.808 879.548 43.312 881.876 43.336L881.588 45.184C878.924 44.992 874.1 44.512 871.388 44.032L871.676 42.208ZM891.726 55.168C893.742 55.168 895.374 56.8 895.374 58.816C895.374 60.832 893.742 62.464 891.726 62.464C889.71 62.464 888.054 60.832 888.054 58.816C888.054 56.8 889.71 55.168 891.726 55.168ZM891.726 61.24C893.07 61.24 894.15 60.16 894.15 58.816C894.15 57.472 893.07 56.392 891.726 56.392C890.382 56.392 889.278 57.472 889.278 58.816C889.278 60.16 890.382 61.24 891.726 61.24ZM917.964 46.864H939.756V48.616H917.964V46.864ZM922.5 59.416H938.94V61.144H922.5V59.416ZM928.668 53.632H935.004V55.336H928.668V53.632ZM921.564 41.488H923.412V62.944H921.564V41.488ZM927.876 40.984H929.7V56.512H927.876V40.984ZM934.212 41.248H936.012V56.392H934.212V41.248ZM946.38 47.152V49.768H959.244V47.152H946.38ZM946.38 43.144V45.712H959.244V43.144H946.38ZM944.58 41.632H961.092V51.256H944.58V41.632ZM955.476 50.272C957.156 52.6 960.54 54.544 963.9 55.432C963.492 55.792 962.964 56.488 962.7 56.968C959.268 55.864 955.836 53.584 953.94 50.848L955.476 50.272ZM950.292 50.272L951.852 50.92C949.932 53.584 946.404 55.888 943.116 57.064C942.828 56.608 942.3 55.936 941.892 55.576C945.132 54.64 948.564 52.576 950.292 50.272ZM948.3 54.496H950.124V55.984C950.124 58.288 949.548 61.192 944.892 63.064C944.628 62.608 944.052 61.984 943.644 61.624C947.868 60.04 948.3 57.712 948.3 55.936V54.496ZM951.876 42.424H953.7V50.584H951.876V42.424ZM955.932 54.496H957.78V62.872H955.932V54.496ZM975.876 42.04C975.66 42.976 975.396 44.296 974.772 45.904C974.172 47.368 973.284 48.976 972.324 50.224C973.26 49.672 974.628 49.336 975.684 49.336C977.532 49.336 978.972 50.44 978.972 52.384C978.972 53.632 979.02 56.392 979.044 57.88H977.196C977.292 56.608 977.316 54.136 977.292 52.888C977.268 51.496 976.308 50.848 975.06 50.848C973.524 50.848 972.012 51.616 970.908 52.6C970.212 53.272 969.54 54.136 968.748 55.12L967.092 53.896C970.548 50.584 972.156 47.8 972.972 45.76C973.5 44.44 973.836 43 973.908 41.872L975.876 42.04ZM967.644 44.632C968.94 44.8 970.596 44.872 971.7 44.872C974.94 44.872 979.092 44.68 982.476 44.08V45.856C979.116 46.36 974.652 46.576 971.604 46.576C970.572 46.576 968.988 46.528 967.644 46.432V44.632ZM985.98 50.416C985.38 50.608 984.516 50.944 983.868 51.184C982.164 51.856 979.884 52.768 977.556 53.968C975.18 55.216 973.5 56.512 973.5 58.168C973.5 60.04 975.348 60.328 977.82 60.328C979.692 60.328 982.284 60.112 984.396 59.728L984.324 61.672C982.5 61.888 979.836 62.08 977.748 62.08C974.34 62.08 971.58 61.336 971.58 58.432C971.58 55.504 974.556 53.704 977.412 52.24C979.692 51.064 981.636 50.32 983.22 49.576C983.94 49.24 984.54 48.976 985.212 48.64L985.98 50.416ZM990.348 43.24H1011.4V44.944H990.348V43.24ZM999.876 40.864H1001.72V43.912H999.876V40.864ZM1003.12 43.912H1004.87V50.224C1004.87 51.136 1004.72 51.592 1004.03 51.856C1003.38 52.12 1002.28 52.144 1000.67 52.144C1000.6 51.64 1000.38 51.016 1000.19 50.512C1001.36 50.56 1002.4 50.56 1002.73 50.536C1003.04 50.536 1003.12 50.464 1003.12 50.2V43.912ZM998.1 43.72H999.78V45.064C999.78 47.536 999.42 50.728 995.604 53.032C995.34 52.648 994.716 52.072 994.308 51.808C997.788 49.792 998.1 47.056 998.1 45.04V43.72ZM1006.12 46.888L1007.53 46.048C1009.07 47.44 1010.94 49.408 1011.8 50.728L1010.29 51.664C1009.5 50.344 1007.68 48.328 1006.12 46.888ZM993.972 46.168L995.676 46.648C994.668 48.448 992.916 50.32 991.164 51.472C990.852 51.136 990.276 50.656 989.916 50.392C991.572 49.384 993.228 47.68 993.972 46.168ZM996.828 54.688C999.324 58.552 1004.87 60.736 1011.9 61.312C1011.52 61.72 1011.06 62.464 1010.84 62.992C1003.62 62.2 998.172 59.752 995.244 55.24L996.828 54.688ZM998.22 51.688L1000.14 52.072C998.34 54.496 995.58 56.752 991.692 58.432C991.428 58.024 990.924 57.4 990.54 57.112C994.236 55.696 996.852 53.608 998.22 51.688ZM997.5 53.512H1006.48V55H996.18L997.5 53.512ZM1006 53.512H1006.4L1006.74 53.44L1007.89 54.256C1004.84 59.584 998.004 61.984 990.828 62.992C990.684 62.56 990.276 61.768 989.94 61.408C996.948 60.592 1003.45 58.408 1006 53.824V53.512ZM1020.32 42.088C1022.92 42.664 1027.5 43.216 1029.8 43.336L1029.54 45.112C1027.14 44.896 1022.94 44.368 1020.01 43.84L1020.32 42.088ZM1030.28 48.952C1029.83 49.264 1029.23 49.768 1028.94 50.008C1028.03 50.848 1025.34 53.368 1024.43 54.304C1024.69 54.28 1025.12 54.28 1025.39 54.352C1026.3 54.448 1026.85 55.072 1027.19 56.056C1027.43 56.752 1027.76 57.976 1028 58.744C1028.29 59.656 1028.84 60.064 1030.09 60.064C1031.65 60.064 1033.48 59.848 1034.63 59.56L1034.48 61.576C1033.48 61.768 1031.27 61.936 1030 61.936C1028.05 61.936 1026.88 61.48 1026.35 59.896C1026.11 59.176 1025.77 57.76 1025.53 57.088C1025.27 56.248 1024.74 55.792 1024.07 55.792C1023.42 55.792 1022.84 56.128 1022.29 56.68C1021.4 57.52 1018.79 60.28 1017.42 62.008L1015.6 60.736C1015.91 60.496 1016.34 60.112 1016.8 59.656C1017.78 58.696 1024.31 52.144 1026.66 49.792C1024.76 49.888 1020.73 50.248 1019.27 50.368C1018.48 50.416 1017.85 50.512 1017.35 50.584L1017.18 48.496C1017.73 48.544 1018.43 48.544 1019.2 48.544C1020.59 48.496 1026.16 48.136 1027.98 47.896C1028.39 47.848 1028.89 47.728 1029.13 47.632L1030.28 48.952ZM1050.56 41.968C1050.52 42.376 1050.47 42.856 1050.44 43.576C1050.4 44.536 1050.4 47.752 1050.4 49.768C1050.4 52.936 1050.76 57.136 1050.76 58.744C1050.76 60.424 1049.65 62.128 1046.53 62.128C1043.08 62.128 1041.18 60.904 1041.18 58.576C1041.18 56.392 1043.27 54.928 1046.72 54.928C1051.79 54.928 1055.75 57.664 1057.6 59.176L1056.49 60.88C1054.33 58.888 1050.78 56.488 1046.51 56.488C1044.2 56.488 1042.98 57.376 1042.98 58.48C1042.98 59.608 1043.92 60.424 1046.29 60.424C1047.68 60.424 1048.86 60.016 1048.86 58.336C1048.86 56.488 1048.62 51.88 1048.62 49.768C1048.62 47.608 1048.62 45.088 1048.62 43.408C1048.62 43 1048.6 42.28 1048.52 41.968H1050.56ZM1041.4 44.56C1042.93 44.848 1045.93 45.088 1047.52 45.088C1050.56 45.088 1053.78 44.872 1056.9 44.368V46.12C1054.19 46.432 1050.76 46.744 1047.54 46.744C1045.88 46.744 1042.93 46.528 1041.42 46.336L1041.4 44.56ZM1041.28 49.672C1042.98 49.936 1045.72 50.104 1047.3 50.104C1050.78 50.104 1053.97 49.864 1057.09 49.408V51.208C1053.83 51.616 1050.9 51.784 1047.3 51.784C1045.64 51.784 1043 51.664 1041.3 51.472L1041.28 49.672ZM1069 42.304C1068.88 43.096 1068.8 43.936 1068.76 44.728C1068.66 47.44 1068.47 53.128 1068.47 56.704C1068.47 59.344 1070.12 60.256 1072.4 60.256C1076.8 60.256 1079.29 57.808 1081.02 55.312L1082.36 56.944C1080.73 59.224 1077.61 62.224 1072.36 62.224C1068.9 62.224 1066.52 60.808 1066.52 56.872C1066.52 53.32 1066.76 47.248 1066.76 44.728C1066.76 43.84 1066.69 43 1066.55 42.304H1069ZM1097.72 46.12C1097.63 46.48 1097.56 47.416 1097.56 48.064C1097.56 48.856 1097.56 50.752 1097.56 52.048C1097.56 54.088 1097.84 57.952 1097.84 59.584C1097.84 61.144 1096.86 62.536 1094.24 62.536C1091.41 62.536 1089.42 61.456 1089.42 59.32C1089.42 57.328 1091.22 56.032 1094.53 56.032C1098.54 56.032 1101.92 58.168 1103.84 59.896L1102.81 61.576C1100.89 59.608 1097.75 57.544 1094.34 57.544C1092.42 57.544 1091.1 58.144 1091.1 59.248C1091.1 60.184 1092.18 60.904 1094.03 60.904C1095.35 60.904 1096.02 60.16 1096.02 59.008C1096.02 57.4 1095.8 53.992 1095.8 51.928C1095.8 50.92 1095.8 48.904 1095.8 48.088C1095.8 47.392 1095.73 46.456 1095.64 46.12H1097.72ZM1096.69 49.792C1097.99 49.792 1101.47 49.648 1103.53 49.408L1103.58 51.088C1101.54 51.28 1098.04 51.424 1096.72 51.424L1096.69 49.792ZM1126.09 53.032C1126.09 50.992 1124.46 49.576 1121.99 49.576C1119.23 49.576 1116.85 50.368 1115.46 50.776C1114.72 50.992 1114 51.256 1113.42 51.496L1112.82 49.288C1113.49 49.24 1114.28 49.072 1115.03 48.928C1116.71 48.544 1119.42 47.776 1122.2 47.776C1125.61 47.776 1128.13 49.672 1128.13 53.104C1128.13 58.312 1123.48 61.216 1117.26 62.176L1116.16 60.352C1121.99 59.608 1126.09 57.328 1126.09 53.032ZM1116.01 42.208C1118.68 42.808 1123.88 43.312 1126.21 43.336L1125.92 45.184C1123.26 44.992 1118.44 44.512 1115.72 44.032L1116.01 42.208ZM1136.06 55.168C1138.08 55.168 1139.71 56.8 1139.71 58.816C1139.71 60.832 1138.08 62.464 1136.06 62.464C1134.05 62.464 1132.39 60.832 1132.39 58.816C1132.39 56.8 1134.05 55.168 1136.06 55.168ZM1136.06 61.24C1137.41 61.24 1138.49 60.16 1138.49 58.816C1138.49 57.472 1137.41 56.392 1136.06 56.392C1134.72 56.392 1133.61 57.472 1133.61 58.816C1133.61 60.16 1134.72 61.24 1136.06 61.24ZM1162.3 46.864H1184.09V48.616H1162.3V46.864ZM1166.84 59.416H1183.28V61.144H1166.84V59.416ZM1173 53.632H1179.34V55.336H1173V53.632ZM1165.9 41.488H1167.75V62.944H1165.9V41.488ZM1172.21 40.984H1174.04V56.512H1172.21V40.984ZM1178.55 41.248H1180.35V56.392H1178.55V41.248ZM1190.72 47.152V49.768H1203.58V47.152H1190.72ZM1190.72 43.144V45.712H1203.58V43.144H1190.72ZM1188.92 41.632H1205.43V51.256H1188.92V41.632ZM1199.81 50.272C1201.49 52.6 1204.88 54.544 1208.24 55.432C1207.83 55.792 1207.3 56.488 1207.04 56.968C1203.6 55.864 1200.17 53.584 1198.28 50.848L1199.81 50.272ZM1194.63 50.272L1196.19 50.92C1194.27 53.584 1190.74 55.888 1187.45 57.064C1187.16 56.608 1186.64 55.936 1186.23 55.576C1189.47 54.64 1192.9 52.576 1194.63 50.272ZM1192.64 54.496H1194.46V55.984C1194.46 58.288 1193.88 61.192 1189.23 63.064C1188.96 62.608 1188.39 61.984 1187.98 61.624C1192.2 60.04 1192.64 57.712 1192.64 55.936V54.496ZM1196.21 42.424H1198.04V50.584H1196.21V42.424ZM1200.27 54.496H1202.12V62.872H1200.27V54.496ZM1220.21 42.04C1220 42.976 1219.73 44.296 1219.11 45.904C1218.51 47.368 1217.62 48.976 1216.66 50.224C1217.6 49.672 1218.96 49.336 1220.02 49.336C1221.87 49.336 1223.31 50.44 1223.31 52.384C1223.31 53.632 1223.36 56.392 1223.38 57.88H1221.53C1221.63 56.608 1221.65 54.136 1221.63 52.888C1221.6 51.496 1220.64 50.848 1219.4 50.848C1217.86 50.848 1216.35 51.616 1215.24 52.6C1214.55 53.272 1213.88 54.136 1213.08 55.12L1211.43 53.896C1214.88 50.584 1216.49 47.8 1217.31 45.76C1217.84 44.44 1218.17 43 1218.24 41.872L1220.21 42.04ZM1211.98 44.632C1213.28 44.8 1214.93 44.872 1216.04 44.872C1219.28 44.872 1223.43 44.68 1226.81 44.08V45.856C1223.45 46.36 1218.99 46.576 1215.94 46.576C1214.91 46.576 1213.32 46.528 1211.98 46.432V44.632ZM1230.32 50.416C1229.72 50.608 1228.85 50.944 1228.2 51.184C1226.5 51.856 1224.22 52.768 1221.89 53.968C1219.52 55.216 1217.84 56.512 1217.84 58.168C1217.84 60.04 1219.68 60.328 1222.16 60.328C1224.03 60.328 1226.62 60.112 1228.73 59.728L1228.66 61.672C1226.84 61.888 1224.17 62.08 1222.08 62.08C1218.68 62.08 1215.92 61.336 1215.92 58.432C1215.92 55.504 1218.89 53.704 1221.75 52.24C1224.03 51.064 1225.97 50.32 1227.56 49.576C1228.28 49.24 1228.88 48.976 1229.55 48.64L1230.32 50.416ZM1234.68 43.24H1255.73V44.944H1234.68V43.24ZM1244.21 40.864H1246.06V43.912H1244.21V40.864ZM1247.45 43.912H1249.2V50.224C1249.2 51.136 1249.06 51.592 1248.36 51.856C1247.72 52.12 1246.61 52.144 1245 52.144C1244.93 51.64 1244.72 51.016 1244.52 50.512C1245.7 50.56 1246.73 50.56 1247.07 50.536C1247.38 50.536 1247.45 50.464 1247.45 50.2V43.912ZM1242.44 43.72H1244.12V45.064C1244.12 47.536 1243.76 50.728 1239.94 53.032C1239.68 52.648 1239.05 52.072 1238.64 51.808C1242.12 49.792 1242.44 47.056 1242.44 45.04V43.72ZM1250.45 46.888L1251.87 46.048C1253.4 47.44 1255.28 49.408 1256.14 50.728L1254.63 51.664C1253.84 50.344 1252.01 48.328 1250.45 46.888ZM1238.31 46.168L1240.01 46.648C1239 48.448 1237.25 50.32 1235.5 51.472C1235.19 51.136 1234.61 50.656 1234.25 50.392C1235.91 49.384 1237.56 47.68 1238.31 46.168ZM1241.16 54.688C1243.66 58.552 1249.2 60.736 1256.24 61.312C1255.85 61.72 1255.4 62.464 1255.18 62.992C1247.96 62.2 1242.51 59.752 1239.58 55.24L1241.16 54.688ZM1242.56 51.688L1244.48 52.072C1242.68 54.496 1239.92 56.752 1236.03 58.432C1235.76 58.024 1235.26 57.4 1234.88 57.112C1238.57 55.696 1241.19 53.608 1242.56 51.688ZM1241.84 53.512H1250.81V55H1240.52L1241.84 53.512ZM1250.33 53.512H1250.74L1251.08 53.44L1252.23 54.256C1249.18 59.584 1242.34 61.984 1235.16 62.992C1235.02 62.56 1234.61 61.768 1234.28 61.408C1241.28 60.592 1247.79 58.408 1250.33 53.824V53.512ZM1264.66 42.088C1267.25 42.664 1271.84 43.216 1274.14 43.336L1273.88 45.112C1271.48 44.896 1267.28 44.368 1264.35 43.84L1264.66 42.088ZM1274.62 48.952C1274.16 49.264 1273.56 49.768 1273.28 50.008C1272.36 50.848 1269.68 53.368 1268.76 54.304C1269.03 54.28 1269.46 54.28 1269.72 54.352C1270.64 54.448 1271.19 55.072 1271.52 56.056C1271.76 56.752 1272.1 57.976 1272.34 58.744C1272.63 59.656 1273.18 60.064 1274.43 60.064C1275.99 60.064 1277.81 59.848 1278.96 59.56L1278.82 61.576C1277.81 61.768 1275.6 61.936 1274.33 61.936C1272.39 61.936 1271.21 61.48 1270.68 59.896C1270.44 59.176 1270.11 57.76 1269.87 57.088C1269.6 56.248 1269.08 55.792 1268.4 55.792C1267.76 55.792 1267.18 56.128 1266.63 56.68C1265.74 57.52 1263.12 60.28 1261.76 62.008L1259.93 60.736C1260.24 60.496 1260.68 60.112 1261.13 59.656C1262.12 58.696 1268.64 52.144 1271 49.792C1269.1 49.888 1265.07 50.248 1263.6 50.368C1262.81 50.416 1262.19 50.512 1261.68 50.584L1261.52 48.496C1262.07 48.544 1262.76 48.544 1263.53 48.544C1264.92 48.496 1270.49 48.136 1272.32 47.896C1272.72 47.848 1273.23 47.728 1273.47 47.632L1274.62 48.952ZM1294.9 41.968C1294.85 42.376 1294.8 42.856 1294.78 43.576C1294.73 44.536 1294.73 47.752 1294.73 49.768C1294.73 52.936 1295.09 57.136 1295.09 58.744C1295.09 60.424 1293.99 62.128 1290.87 62.128C1287.41 62.128 1285.52 60.904 1285.52 58.576C1285.52 56.392 1287.6 54.928 1291.06 54.928C1296.12 54.928 1300.08 57.664 1301.93 59.176L1300.83 60.88C1298.67 58.888 1295.12 56.488 1290.84 56.488C1288.54 56.488 1287.32 57.376 1287.32 58.48C1287.32 59.608 1288.25 60.424 1290.63 60.424C1292.02 60.424 1293.2 60.016 1293.2 58.336C1293.2 56.488 1292.96 51.88 1292.96 49.768C1292.96 47.608 1292.96 45.088 1292.96 43.408C1292.96 43 1292.93 42.28 1292.86 41.968H1294.9ZM1285.73 44.56C1287.27 44.848 1290.27 45.088 1291.85 45.088C1294.9 45.088 1298.12 44.872 1301.24 44.368V46.12C1298.52 46.432 1295.09 46.744 1291.88 46.744C1290.22 46.744 1287.27 46.528 1285.76 46.336L1285.73 44.56ZM1285.61 49.672C1287.32 49.936 1290.05 50.104 1291.64 50.104C1295.12 50.104 1298.31 49.864 1301.43 49.408V51.208C1298.16 51.616 1295.24 51.784 1291.64 51.784C1289.98 51.784 1287.34 51.664 1285.64 51.472L1285.61 49.672ZM383.988 76.304C383.868 77.096 383.796 77.936 383.748 78.728C383.652 81.44 383.46 87.128 383.46 90.704C383.46 93.344 385.116 94.256 387.396 94.256C391.788 94.256 394.284 91.808 396.012 89.312L397.356 90.944C395.724 93.224 392.604 96.224 387.348 96.224C383.892 96.224 381.516 94.808 381.516 90.872C381.516 87.32 381.756 81.248 381.756 78.728C381.756 77.84 381.684 77 381.54 76.304H383.988ZM412.716 80.12C412.62 80.48 412.548 81.416 412.548 82.064C412.548 82.856 412.548 84.752 412.548 86.048C412.548 88.088 412.836 91.952 412.836 93.584C412.836 95.144 411.852 96.536 409.236 96.536C406.404 96.536 404.412 95.456 404.412 93.32C404.412 91.328 406.212 90.032 409.524 90.032C413.532 90.032 416.916 92.168 418.836 93.896L417.804 95.576C415.884 93.608 412.74 91.544 409.332 91.544C407.412 91.544 406.092 92.144 406.092 93.248C406.092 94.184 407.172 94.904 409.02 94.904C410.34 94.904 411.012 94.16 411.012 93.008C411.012 91.4 410.796 87.992 410.796 85.928C410.796 84.92 410.796 82.904 410.796 82.088C410.796 81.392 410.724 80.456 410.628 80.12H412.716ZM411.684 83.792C412.98 83.792 416.46 83.648 418.524 83.408L418.572 85.088C416.532 85.28 413.028 85.424 411.708 85.424L411.684 83.792ZM441.084 87.032C441.084 84.992 439.452 83.576 436.98 83.576C434.22 83.576 431.844 84.368 430.452 84.776C429.708 84.992 428.988 85.256 428.412 85.496L427.812 83.288C428.484 83.24 429.276 83.072 430.02 82.928C431.7 82.544 434.412 81.776 437.196 81.776C440.604 81.776 443.124 83.672 443.124 87.104C443.124 92.312 438.468 95.216 432.252 96.176L431.148 94.352C436.98 93.608 441.084 91.328 441.084 87.032ZM431.004 76.208C433.668 76.808 438.876 77.312 441.204 77.336L440.916 79.184C438.252 78.992 433.428 78.512 430.716 78.032L431.004 76.208ZM451.054 89.168C453.07 89.168 454.702 90.8 454.702 92.816C454.702 94.832 453.07 96.464 451.054 96.464C449.038 96.464 447.382 94.832 447.382 92.816C447.382 90.8 449.038 89.168 451.054 89.168ZM451.054 95.24C452.398 95.24 453.478 94.16 453.478 92.816C453.478 91.472 452.398 90.392 451.054 90.392C449.71 90.392 448.606 91.472 448.606 92.816C448.606 94.16 449.71 95.24 451.054 95.24ZM477.292 80.864H499.084V82.616H477.292V80.864ZM481.828 93.416H498.268V95.144H481.828V93.416ZM487.996 87.632H494.332V89.336H487.996V87.632ZM480.892 75.488H482.74V96.944H480.892V75.488ZM487.204 74.984H489.028V90.512H487.204V74.984ZM493.54 75.248H495.34V90.392H493.54V75.248ZM505.708 81.152V83.768H518.572V81.152H505.708ZM505.708 77.144V79.712H518.572V77.144H505.708ZM503.908 75.632H520.42V85.256H503.908V75.632ZM514.804 84.272C516.484 86.6 519.868 88.544 523.228 89.432C522.82 89.792 522.292 90.488 522.028 90.968C518.596 89.864 515.164 87.584 513.268 84.848L514.804 84.272ZM509.62 84.272L511.18 84.92C509.26 87.584 505.732 89.888 502.444 91.064C502.156 90.608 501.628 89.936 501.22 89.576C504.46 88.64 507.892 86.576 509.62 84.272ZM507.628 88.496H509.452V89.984C509.452 92.288 508.876 95.192 504.22 97.064C503.956 96.608 503.38 95.984 502.972 95.624C507.196 94.04 507.628 91.712 507.628 89.936V88.496ZM511.204 76.424H513.028V84.584H511.204V76.424ZM515.26 88.496H517.108V96.872H515.26V88.496ZM535.204 76.04C534.988 76.976 534.724 78.296 534.1 79.904C533.5 81.368 532.612 82.976 531.652 84.224C532.588 83.672 533.956 83.336 535.012 83.336C536.86 83.336 538.3 84.44 538.3 86.384C538.3 87.632 538.348 90.392 538.372 91.88H536.524C536.62 90.608 536.644 88.136 536.62 86.888C536.596 85.496 535.636 84.848 534.388 84.848C532.852 84.848 531.34 85.616 530.236 86.6C529.54 87.272 528.868 88.136 528.076 89.12L526.42 87.896C529.876 84.584 531.484 81.8 532.3 79.76C532.828 78.44 533.164 77 533.236 75.872L535.204 76.04ZM526.972 78.632C528.268 78.8 529.924 78.872 531.028 78.872C534.268 78.872 538.42 78.68 541.804 78.08V79.856C538.444 80.36 533.98 80.576 530.932 80.576C529.9 80.576 528.316 80.528 526.972 80.432V78.632ZM545.308 84.416C544.708 84.608 543.844 84.944 543.196 85.184C541.492 85.856 539.212 86.768 536.884 87.968C534.508 89.216 532.828 90.512 532.828 92.168C532.828 94.04 534.676 94.328 537.148 94.328C539.02 94.328 541.612 94.112 543.724 93.728L543.652 95.672C541.828 95.888 539.164 96.08 537.076 96.08C533.668 96.08 530.908 95.336 530.908 92.432C530.908 89.504 533.884 87.704 536.74 86.24C539.02 85.064 540.964 84.32 542.548 83.576C543.268 83.24 543.868 82.976 544.54 82.64L545.308 84.416ZM549.676 77.24H570.724V78.944H549.676V77.24ZM559.204 74.864H561.052V77.912H559.204V74.864ZM562.444 77.912H564.196V84.224C564.196 85.136 564.052 85.592 563.356 85.856C562.708 86.12 561.604 86.144 559.996 86.144C559.924 85.64 559.708 85.016 559.516 84.512C560.692 84.56 561.724 84.56 562.06 84.536C562.372 84.536 562.444 84.464 562.444 84.2V77.912ZM557.428 77.72H559.108V79.064C559.108 81.536 558.748 84.728 554.932 87.032C554.668 86.648 554.044 86.072 553.636 85.808C557.116 83.792 557.428 81.056 557.428 79.04V77.72ZM565.444 80.888L566.86 80.048C568.396 81.44 570.268 83.408 571.132 84.728L569.62 85.664C568.828 84.344 567.004 82.328 565.444 80.888ZM553.3 80.168L555.004 80.648C553.996 82.448 552.244 84.32 550.492 85.472C550.18 85.136 549.604 84.656 549.244 84.392C550.9 83.384 552.556 81.68 553.3 80.168ZM556.156 88.688C558.652 92.552 564.196 94.736 571.228 95.312C570.844 95.72 570.388 96.464 570.172 96.992C562.948 96.2 557.5 93.752 554.572 89.24L556.156 88.688ZM557.548 85.688L559.468 86.072C557.668 88.496 554.908 90.752 551.02 92.432C550.756 92.024 550.252 91.4 549.868 91.112C553.564 89.696 556.18 87.608 557.548 85.688ZM556.828 87.512H565.804V89H555.508L556.828 87.512ZM565.324 87.512H565.732L566.068 87.44L567.22 88.256C564.172 93.584 557.332 95.984 550.156 96.992C550.012 96.56 549.604 95.768 549.268 95.408C556.276 94.592 562.78 92.408 565.324 87.824V87.512ZM579.652 76.088C582.244 76.664 586.828 77.216 589.132 77.336L588.868 79.112C586.468 78.896 582.268 78.368 579.34 77.84L579.652 76.088ZM589.612 82.952C589.156 83.264 588.556 83.768 588.268 84.008C587.356 84.848 584.668 87.368 583.756 88.304C584.02 88.28 584.452 88.28 584.716 88.352C585.628 88.448 586.18 89.072 586.516 90.056C586.756 90.752 587.092 91.976 587.332 92.744C587.62 93.656 588.172 94.064 589.42 94.064C590.98 94.064 592.804 93.848 593.956 93.56L593.812 95.576C592.804 95.768 590.596 95.936 589.324 95.936C587.38 95.936 586.204 95.48 585.676 93.896C585.436 93.176 585.1 91.76 584.86 91.088C584.596 90.248 584.068 89.792 583.396 89.792C582.748 89.792 582.172 90.128 581.62 90.68C580.732 91.52 578.116 94.28 576.748 96.008L574.924 94.736C575.236 94.496 575.668 94.112 576.124 93.656C577.108 92.696 583.636 86.144 585.988 83.792C584.092 83.888 580.06 84.248 578.596 84.368C577.804 84.416 577.18 84.512 576.676 84.584L576.508 82.496C577.06 82.544 577.756 82.544 578.524 82.544C579.916 82.496 585.484 82.136 587.308 81.896C587.716 81.848 588.22 81.728 588.46 81.632L589.612 82.952ZM609.892 75.968C609.844 76.376 609.796 76.856 609.772 77.576C609.724 78.536 609.724 81.752 609.724 83.768C609.724 86.936 610.084 91.136 610.084 92.744C610.084 94.424 608.98 96.128 605.86 96.128C602.404 96.128 600.508 94.904 600.508 92.576C600.508 90.392 602.596 88.928 606.052 88.928C611.116 88.928 615.076 91.664 616.924 93.176L615.82 94.88C613.66 92.888 610.108 90.488 605.836 90.488C603.532 90.488 602.308 91.376 602.308 92.48C602.308 93.608 603.244 94.424 605.62 94.424C607.012 94.424 608.188 94.016 608.188 92.336C608.188 90.488 607.948 85.88 607.948 83.768C607.948 81.608 607.948 79.088 607.948 77.408C607.948 77 607.924 76.28 607.852 75.968H609.892ZM600.724 78.56C602.26 78.848 605.26 79.088 606.844 79.088C609.892 79.088 613.108 78.872 616.228 78.368V80.12C613.516 80.432 610.084 80.744 606.868 80.744C605.212 80.744 602.26 80.528 600.748 80.336L600.724 78.56ZM600.604 83.672C602.308 83.936 605.044 84.104 606.628 84.104C610.108 84.104 613.3 83.864 616.42 83.408V85.208C613.156 85.616 610.228 85.784 606.628 85.784C604.972 85.784 602.332 85.664 600.628 85.472L600.604 83.672ZM628.324 76.304C628.204 77.096 628.132 77.936 628.084 78.728C627.988 81.44 627.796 87.128 627.796 90.704C627.796 93.344 629.452 94.256 631.732 94.256C636.124 94.256 638.62 91.808 640.348 89.312L641.692 90.944C640.06 93.224 636.94 96.224 631.684 96.224C628.228 96.224 625.852 94.808 625.852 90.872C625.852 87.32 626.092 81.248 626.092 78.728C626.092 77.84 626.02 77 625.876 76.304H628.324ZM657.052 80.12C656.956 80.48 656.884 81.416 656.884 82.064C656.884 82.856 656.884 84.752 656.884 86.048C656.884 88.088 657.172 91.952 657.172 93.584C657.172 95.144 656.188 96.536 653.572 96.536C650.74 96.536 648.748 95.456 648.748 93.32C648.748 91.328 650.548 90.032 653.86 90.032C657.868 90.032 661.252 92.168 663.172 93.896L662.14 95.576C660.22 93.608 657.076 91.544 653.668 91.544C651.748 91.544 650.428 92.144 650.428 93.248C650.428 94.184 651.508 94.904 653.356 94.904C654.676 94.904 655.348 94.16 655.348 93.008C655.348 91.4 655.132 87.992 655.132 85.928C655.132 84.92 655.132 82.904 655.132 82.088C655.132 81.392 655.06 80.456 654.964 80.12H657.052ZM656.02 83.792C657.316 83.792 660.796 83.648 662.86 83.408L662.908 85.088C660.868 85.28 657.364 85.424 656.044 85.424L656.02 83.792ZM685.42 87.032C685.42 84.992 683.788 83.576 681.316 83.576C678.556 83.576 676.18 84.368 674.788 84.776C674.044 84.992 673.324 85.256 672.748 85.496L672.148 83.288C672.82 83.24 673.612 83.072 674.356 82.928C676.036 82.544 678.748 81.776 681.532 81.776C684.94 81.776 687.46 83.672 687.46 87.104C687.46 92.312 682.804 95.216 676.588 96.176L675.484 94.352C681.316 93.608 685.42 91.328 685.42 87.032ZM675.34 76.208C678.004 76.808 683.212 77.312 685.54 77.336L685.252 79.184C682.588 78.992 677.764 78.512 675.052 78.032L675.34 76.208ZM695.39 89.168C697.406 89.168 699.038 90.8 699.038 92.816C699.038 94.832 697.406 96.464 695.39 96.464C693.374 96.464 691.718 94.832 691.718 92.816C691.718 90.8 693.374 89.168 695.39 89.168ZM695.39 95.24C696.734 95.24 697.814 94.16 697.814 92.816C697.814 91.472 696.734 90.392 695.39 90.392C694.046 90.392 692.942 91.472 692.942 92.816C692.942 94.16 694.046 95.24 695.39 95.24ZM721.628 80.864H743.42V82.616H721.628V80.864ZM726.164 93.416H742.604V95.144H726.164V93.416ZM732.332 87.632H738.668V89.336H732.332V87.632ZM725.228 75.488H727.076V96.944H725.228V75.488ZM731.54 74.984H733.364V90.512H731.54V74.984ZM737.876 75.248H739.676V90.392H737.876V75.248ZM750.044 81.152V83.768H762.908V81.152H750.044ZM750.044 77.144V79.712H762.908V77.144H750.044ZM748.244 75.632H764.756V85.256H748.244V75.632ZM759.14 84.272C760.82 86.6 764.204 88.544 767.564 89.432C767.156 89.792 766.628 90.488 766.364 90.968C762.932 89.864 759.5 87.584 757.604 84.848L759.14 84.272ZM753.956 84.272L755.516 84.92C753.596 87.584 750.068 89.888 746.78 91.064C746.492 90.608 745.964 89.936 745.556 89.576C748.796 88.64 752.228 86.576 753.956 84.272ZM751.964 88.496H753.788V89.984C753.788 92.288 753.212 95.192 748.556 97.064C748.292 96.608 747.716 95.984 747.308 95.624C751.532 94.04 751.964 91.712 751.964 89.936V88.496ZM755.54 76.424H757.364V84.584H755.54V76.424ZM759.596 88.496H761.444V96.872H759.596V88.496ZM779.54 76.04C779.324 76.976 779.06 78.296 778.436 79.904C777.836 81.368 776.948 82.976 775.988 84.224C776.924 83.672 778.292 83.336 779.348 83.336C781.196 83.336 782.636 84.44 782.636 86.384C782.636 87.632 782.684 90.392 782.708 91.88H780.86C780.956 90.608 780.98 88.136 780.956 86.888C780.932 85.496 779.972 84.848 778.724 84.848C777.188 84.848 775.676 85.616 774.572 86.6C773.876 87.272 773.204 88.136 772.412 89.12L770.756 87.896C774.212 84.584 775.82 81.8 776.636 79.76C777.164 78.44 777.5 77 777.572 75.872L779.54 76.04ZM771.308 78.632C772.604 78.8 774.26 78.872 775.364 78.872C778.604 78.872 782.756 78.68 786.14 78.08V79.856C782.78 80.36 778.316 80.576 775.268 80.576C774.236 80.576 772.652 80.528 771.308 80.432V78.632ZM789.644 84.416C789.044 84.608 788.18 84.944 787.532 85.184C785.828 85.856 783.548 86.768 781.22 87.968C778.844 89.216 777.164 90.512 777.164 92.168C777.164 94.04 779.012 94.328 781.484 94.328C783.356 94.328 785.948 94.112 788.06 93.728L787.988 95.672C786.164 95.888 783.5 96.08 781.412 96.08C778.004 96.08 775.244 95.336 775.244 92.432C775.244 89.504 778.22 87.704 781.076 86.24C783.356 85.064 785.3 84.32 786.884 83.576C787.604 83.24 788.204 82.976 788.876 82.64L789.644 84.416ZM794.012 77.24H815.06V78.944H794.012V77.24ZM803.54 74.864H805.388V77.912H803.54V74.864ZM806.78 77.912H808.532V84.224C808.532 85.136 808.388 85.592 807.692 85.856C807.044 86.12 805.94 86.144 804.332 86.144C804.26 85.64 804.044 85.016 803.852 84.512C805.028 84.56 806.06 84.56 806.396 84.536C806.708 84.536 806.78 84.464 806.78 84.2V77.912ZM801.764 77.72H803.444V79.064C803.444 81.536 803.084 84.728 799.268 87.032C799.004 86.648 798.38 86.072 797.972 85.808C801.452 83.792 801.764 81.056 801.764 79.04V77.72ZM809.78 80.888L811.196 80.048C812.732 81.44 814.604 83.408 815.468 84.728L813.956 85.664C813.164 84.344 811.34 82.328 809.78 80.888ZM797.636 80.168L799.34 80.648C798.332 82.448 796.58 84.32 794.828 85.472C794.516 85.136 793.94 84.656 793.58 84.392C795.236 83.384 796.892 81.68 797.636 80.168ZM800.492 88.688C802.988 92.552 808.532 94.736 815.564 95.312C815.18 95.72 814.724 96.464 814.508 96.992C807.284 96.2 801.836 93.752 798.908 89.24L800.492 88.688ZM801.884 85.688L803.804 86.072C802.004 88.496 799.244 90.752 795.356 92.432C795.092 92.024 794.588 91.4 794.204 91.112C797.9 89.696 800.516 87.608 801.884 85.688ZM801.164 87.512H810.14V89H799.844L801.164 87.512ZM809.66 87.512H810.068L810.404 87.44L811.556 88.256C808.508 93.584 801.668 95.984 794.492 96.992C794.348 96.56 793.94 95.768 793.604 95.408C800.612 94.592 807.116 92.408 809.66 87.824V87.512ZM823.988 76.088C826.58 76.664 831.164 77.216 833.468 77.336L833.204 79.112C830.804 78.896 826.604 78.368 823.676 77.84L823.988 76.088ZM833.948 82.952C833.492 83.264 832.892 83.768 832.604 84.008C831.692 84.848 829.004 87.368 828.092 88.304C828.356 88.28 828.788 88.28 829.052 88.352C829.964 88.448 830.516 89.072 830.852 90.056C831.092 90.752 831.428 91.976 831.668 92.744C831.956 93.656 832.508 94.064 833.756 94.064C835.316 94.064 837.14 93.848 838.292 93.56L838.148 95.576C837.14 95.768 834.932 95.936 833.66 95.936C831.716 95.936 830.54 95.48 830.012 93.896C829.772 93.176 829.436 91.76 829.196 91.088C828.932 90.248 828.404 89.792 827.732 89.792C827.084 89.792 826.508 90.128 825.956 90.68C825.068 91.52 822.452 94.28 821.084 96.008L819.26 94.736C819.572 94.496 820.004 94.112 820.46 93.656C821.444 92.696 827.972 86.144 830.324 83.792C828.428 83.888 824.396 84.248 822.932 84.368C822.14 84.416 821.516 84.512 821.012 84.584L820.844 82.496C821.396 82.544 822.092 82.544 822.86 82.544C824.252 82.496 829.82 82.136 831.644 81.896C832.052 81.848 832.556 81.728 832.796 81.632L833.948 82.952ZM854.228 75.968C854.18 76.376 854.132 76.856 854.108 77.576C854.06 78.536 854.06 81.752 854.06 83.768C854.06 86.936 854.42 91.136 854.42 92.744C854.42 94.424 853.316 96.128 850.196 96.128C846.74 96.128 844.844 94.904 844.844 92.576C844.844 90.392 846.932 88.928 850.388 88.928C855.452 88.928 859.412 91.664 861.26 93.176L860.156 94.88C857.996 92.888 854.444 90.488 850.172 90.488C847.868 90.488 846.644 91.376 846.644 92.48C846.644 93.608 847.58 94.424 849.956 94.424C851.348 94.424 852.524 94.016 852.524 92.336C852.524 90.488 852.284 85.88 852.284 83.768C852.284 81.608 852.284 79.088 852.284 77.408C852.284 77 852.26 76.28 852.188 75.968H854.228ZM845.06 78.56C846.596 78.848 849.596 79.088 851.18 79.088C854.228 79.088 857.444 78.872 860.564 78.368V80.12C857.852 80.432 854.42 80.744 851.204 80.744C849.548 80.744 846.596 80.528 845.084 80.336L845.06 78.56ZM844.94 83.672C846.644 83.936 849.38 84.104 850.964 84.104C854.444 84.104 857.636 83.864 860.756 83.408V85.208C857.492 85.616 854.564 85.784 850.964 85.784C849.308 85.784 846.668 85.664 844.964 85.472L844.94 83.672ZM872.66 76.304C872.54 77.096 872.468 77.936 872.42 78.728C872.324 81.44 872.132 87.128 872.132 90.704C872.132 93.344 873.788 94.256 876.068 94.256C880.46 94.256 882.956 91.808 884.684 89.312L886.028 90.944C884.396 93.224 881.276 96.224 876.02 96.224C872.564 96.224 870.188 94.808 870.188 90.872C870.188 87.32 870.428 81.248 870.428 78.728C870.428 77.84 870.356 77 870.212 76.304H872.66ZM901.388 80.12C901.292 80.48 901.22 81.416 901.22 82.064C901.22 82.856 901.22 84.752 901.22 86.048C901.22 88.088 901.508 91.952 901.508 93.584C901.508 95.144 900.524 96.536 897.908 96.536C895.076 96.536 893.084 95.456 893.084 93.32C893.084 91.328 894.884 90.032 898.196 90.032C902.204 90.032 905.588 92.168 907.508 93.896L906.476 95.576C904.556 93.608 901.412 91.544 898.004 91.544C896.084 91.544 894.764 92.144 894.764 93.248C894.764 94.184 895.844 94.904 897.692 94.904C899.012 94.904 899.684 94.16 899.684 93.008C899.684 91.4 899.468 87.992 899.468 85.928C899.468 84.92 899.468 82.904 899.468 82.088C899.468 81.392 899.396 80.456 899.3 80.12H901.388ZM900.356 83.792C901.652 83.792 905.132 83.648 907.196 83.408L907.244 85.088C905.204 85.28 901.7 85.424 900.38 85.424L900.356 83.792ZM929.756 87.032C929.756 84.992 928.124 83.576 925.652 83.576C922.892 83.576 920.516 84.368 919.124 84.776C918.38 84.992 917.66 85.256 917.084 85.496L916.484 83.288C917.156 83.24 917.948 83.072 918.692 82.928C920.372 82.544 923.084 81.776 925.868 81.776C929.276 81.776 931.796 83.672 931.796 87.104C931.796 92.312 927.14 95.216 920.924 96.176L919.82 94.352C925.652 93.608 929.756 91.328 929.756 87.032ZM919.676 76.208C922.34 76.808 927.548 77.312 929.876 77.336L929.588 79.184C926.924 78.992 922.1 78.512 919.388 78.032L919.676 76.208ZM939.726 89.168C941.742 89.168 943.374 90.8 943.374 92.816C943.374 94.832 941.742 96.464 939.726 96.464C937.71 96.464 936.054 94.832 936.054 92.816C936.054 90.8 937.71 89.168 939.726 89.168ZM939.726 95.24C941.07 95.24 942.15 94.16 942.15 92.816C942.15 91.472 941.07 90.392 939.726 90.392C938.382 90.392 937.278 91.472 937.278 92.816C937.278 94.16 938.382 95.24 939.726 95.24ZM965.964 80.864H987.756V82.616H965.964V80.864ZM970.5 93.416H986.94V95.144H970.5V93.416ZM976.668 87.632H983.004V89.336H976.668V87.632ZM969.564 75.488H971.412V96.944H969.564V75.488ZM975.876 74.984H977.7V90.512H975.876V74.984ZM982.212 75.248H984.012V90.392H982.212V75.248ZM994.38 81.152V83.768H1007.24V81.152H994.38ZM994.38 77.144V79.712H1007.24V77.144H994.38ZM992.58 75.632H1009.09V85.256H992.58V75.632ZM1003.48 84.272C1005.16 86.6 1008.54 88.544 1011.9 89.432C1011.49 89.792 1010.96 90.488 1010.7 90.968C1007.27 89.864 1003.84 87.584 1001.94 84.848L1003.48 84.272ZM998.292 84.272L999.852 84.92C997.932 87.584 994.404 89.888 991.116 91.064C990.828 90.608 990.3 89.936 989.892 89.576C993.132 88.64 996.564 86.576 998.292 84.272ZM996.3 88.496H998.124V89.984C998.124 92.288 997.548 95.192 992.892 97.064C992.628 96.608 992.052 95.984 991.644 95.624C995.868 94.04 996.3 91.712 996.3 89.936V88.496ZM999.876 76.424H1001.7V84.584H999.876V76.424ZM1003.93 88.496H1005.78V96.872H1003.93V88.496ZM1023.88 76.04C1023.66 76.976 1023.4 78.296 1022.77 79.904C1022.17 81.368 1021.28 82.976 1020.32 84.224C1021.26 83.672 1022.63 83.336 1023.68 83.336C1025.53 83.336 1026.97 84.44 1026.97 86.384C1026.97 87.632 1027.02 90.392 1027.04 91.88H1025.2C1025.29 90.608 1025.32 88.136 1025.29 86.888C1025.27 85.496 1024.31 84.848 1023.06 84.848C1021.52 84.848 1020.01 85.616 1018.91 86.6C1018.21 87.272 1017.54 88.136 1016.75 89.12L1015.09 87.896C1018.55 84.584 1020.16 81.8 1020.97 79.76C1021.5 78.44 1021.84 77 1021.91 75.872L1023.88 76.04ZM1015.64 78.632C1016.94 78.8 1018.6 78.872 1019.7 78.872C1022.94 78.872 1027.09 78.68 1030.48 78.08V79.856C1027.12 80.36 1022.65 80.576 1019.6 80.576C1018.57 80.576 1016.99 80.528 1015.64 80.432V78.632ZM1033.98 84.416C1033.38 84.608 1032.52 84.944 1031.87 85.184C1030.16 85.856 1027.88 86.768 1025.56 87.968C1023.18 89.216 1021.5 90.512 1021.5 92.168C1021.5 94.04 1023.35 94.328 1025.82 94.328C1027.69 94.328 1030.28 94.112 1032.4 93.728L1032.32 95.672C1030.5 95.888 1027.84 96.08 1025.75 96.08C1022.34 96.08 1019.58 95.336 1019.58 92.432C1019.58 89.504 1022.56 87.704 1025.41 86.24C1027.69 85.064 1029.64 84.32 1031.22 83.576C1031.94 83.24 1032.54 82.976 1033.21 82.64L1033.98 84.416ZM1038.35 77.24H1059.4V78.944H1038.35V77.24ZM1047.88 74.864H1049.72V77.912H1047.88V74.864ZM1051.12 77.912H1052.87V84.224C1052.87 85.136 1052.72 85.592 1052.03 85.856C1051.38 86.12 1050.28 86.144 1048.67 86.144C1048.6 85.64 1048.38 85.016 1048.19 84.512C1049.36 84.56 1050.4 84.56 1050.73 84.536C1051.04 84.536 1051.12 84.464 1051.12 84.2V77.912ZM1046.1 77.72H1047.78V79.064C1047.78 81.536 1047.42 84.728 1043.6 87.032C1043.34 86.648 1042.72 86.072 1042.31 85.808C1045.79 83.792 1046.1 81.056 1046.1 79.04V77.72ZM1054.12 80.888L1055.53 80.048C1057.07 81.44 1058.94 83.408 1059.8 84.728L1058.29 85.664C1057.5 84.344 1055.68 82.328 1054.12 80.888ZM1041.97 80.168L1043.68 80.648C1042.67 82.448 1040.92 84.32 1039.16 85.472C1038.85 85.136 1038.28 84.656 1037.92 84.392C1039.57 83.384 1041.23 81.68 1041.97 80.168ZM1044.83 88.688C1047.32 92.552 1052.87 94.736 1059.9 95.312C1059.52 95.72 1059.06 96.464 1058.84 96.992C1051.62 96.2 1046.17 93.752 1043.24 89.24L1044.83 88.688ZM1046.22 85.688L1048.14 86.072C1046.34 88.496 1043.58 90.752 1039.69 92.432C1039.43 92.024 1038.92 91.4 1038.54 91.112C1042.24 89.696 1044.85 87.608 1046.22 85.688ZM1045.5 87.512H1054.48V89H1044.18L1045.5 87.512ZM1054 87.512H1054.4L1054.74 87.44L1055.89 88.256C1052.84 93.584 1046 95.984 1038.83 96.992C1038.68 96.56 1038.28 95.768 1037.94 95.408C1044.95 94.592 1051.45 92.408 1054 87.824V87.512ZM1068.32 76.088C1070.92 76.664 1075.5 77.216 1077.8 77.336L1077.54 79.112C1075.14 78.896 1070.94 78.368 1068.01 77.84L1068.32 76.088ZM1078.28 82.952C1077.83 83.264 1077.23 83.768 1076.94 84.008C1076.03 84.848 1073.34 87.368 1072.43 88.304C1072.69 88.28 1073.12 88.28 1073.39 88.352C1074.3 88.448 1074.85 89.072 1075.19 90.056C1075.43 90.752 1075.76 91.976 1076 92.744C1076.29 93.656 1076.84 94.064 1078.09 94.064C1079.65 94.064 1081.48 93.848 1082.63 93.56L1082.48 95.576C1081.48 95.768 1079.27 95.936 1078 95.936C1076.05 95.936 1074.88 95.48 1074.35 93.896C1074.11 93.176 1073.77 91.76 1073.53 91.088C1073.27 90.248 1072.74 89.792 1072.07 89.792C1071.42 89.792 1070.84 90.128 1070.29 90.68C1069.4 91.52 1066.79 94.28 1065.42 96.008L1063.6 94.736C1063.91 94.496 1064.34 94.112 1064.8 93.656C1065.78 92.696 1072.31 86.144 1074.66 83.792C1072.76 83.888 1068.73 84.248 1067.27 84.368C1066.48 84.416 1065.85 84.512 1065.35 84.584L1065.18 82.496C1065.73 82.544 1066.43 82.544 1067.2 82.544C1068.59 82.496 1074.16 82.136 1075.98 81.896C1076.39 81.848 1076.89 81.728 1077.13 81.632L1078.28 82.952ZM1098.56 75.968C1098.52 76.376 1098.47 76.856 1098.44 77.576C1098.4 78.536 1098.4 81.752 1098.4 83.768C1098.4 86.936 1098.76 91.136 1098.76 92.744C1098.76 94.424 1097.65 96.128 1094.53 96.128C1091.08 96.128 1089.18 94.904 1089.18 92.576C1089.18 90.392 1091.27 88.928 1094.72 88.928C1099.79 88.928 1103.75 91.664 1105.6 93.176L1104.49 94.88C1102.33 92.888 1098.78 90.488 1094.51 90.488C1092.2 90.488 1090.98 91.376 1090.98 92.48C1090.98 93.608 1091.92 94.424 1094.29 94.424C1095.68 94.424 1096.86 94.016 1096.86 92.336C1096.86 90.488 1096.62 85.88 1096.62 83.768C1096.62 81.608 1096.62 79.088 1096.62 77.408C1096.62 77 1096.6 76.28 1096.52 75.968H1098.56ZM1089.4 78.56C1090.93 78.848 1093.93 79.088 1095.52 79.088C1098.56 79.088 1101.78 78.872 1104.9 78.368V80.12C1102.19 80.432 1098.76 80.744 1095.54 80.744C1093.88 80.744 1090.93 80.528 1089.42 80.336L1089.4 78.56ZM1089.28 83.672C1090.98 83.936 1093.72 84.104 1095.3 84.104C1098.78 84.104 1101.97 83.864 1105.09 83.408V85.208C1101.83 85.616 1098.9 85.784 1095.3 85.784C1093.64 85.784 1091 85.664 1089.3 85.472L1089.28 83.672ZM1117 76.304C1116.88 77.096 1116.8 77.936 1116.76 78.728C1116.66 81.44 1116.47 87.128 1116.47 90.704C1116.47 93.344 1118.12 94.256 1120.4 94.256C1124.8 94.256 1127.29 91.808 1129.02 89.312L1130.36 90.944C1128.73 93.224 1125.61 96.224 1120.36 96.224C1116.9 96.224 1114.52 94.808 1114.52 90.872C1114.52 87.32 1114.76 81.248 1114.76 78.728C1114.76 77.84 1114.69 77 1114.55 76.304H1117ZM1145.72 80.12C1145.63 80.48 1145.56 81.416 1145.56 82.064C1145.56 82.856 1145.56 84.752 1145.56 86.048C1145.56 88.088 1145.84 91.952 1145.84 93.584C1145.84 95.144 1144.86 96.536 1142.24 96.536C1139.41 96.536 1137.42 95.456 1137.42 93.32C1137.42 91.328 1139.22 90.032 1142.53 90.032C1146.54 90.032 1149.92 92.168 1151.84 93.896L1150.81 95.576C1148.89 93.608 1145.75 91.544 1142.34 91.544C1140.42 91.544 1139.1 92.144 1139.1 93.248C1139.1 94.184 1140.18 94.904 1142.03 94.904C1143.35 94.904 1144.02 94.16 1144.02 93.008C1144.02 91.4 1143.8 87.992 1143.8 85.928C1143.8 84.92 1143.8 82.904 1143.8 82.088C1143.8 81.392 1143.73 80.456 1143.64 80.12H1145.72ZM1144.69 83.792C1145.99 83.792 1149.47 83.648 1151.53 83.408L1151.58 85.088C1149.54 85.28 1146.04 85.424 1144.72 85.424L1144.69 83.792ZM1174.09 87.032C1174.09 84.992 1172.46 83.576 1169.99 83.576C1167.23 83.576 1164.85 84.368 1163.46 84.776C1162.72 84.992 1162 85.256 1161.42 85.496L1160.82 83.288C1161.49 83.24 1162.28 83.072 1163.03 82.928C1164.71 82.544 1167.42 81.776 1170.2 81.776C1173.61 81.776 1176.13 83.672 1176.13 87.104C1176.13 92.312 1171.48 95.216 1165.26 96.176L1164.16 94.352C1169.99 93.608 1174.09 91.328 1174.09 87.032ZM1164.01 76.208C1166.68 76.808 1171.88 77.312 1174.21 77.336L1173.92 79.184C1171.26 78.992 1166.44 78.512 1163.72 78.032L1164.01 76.208ZM1184.06 89.168C1186.08 89.168 1187.71 90.8 1187.71 92.816C1187.71 94.832 1186.08 96.464 1184.06 96.464C1182.05 96.464 1180.39 94.832 1180.39 92.816C1180.39 90.8 1182.05 89.168 1184.06 89.168ZM1184.06 95.24C1185.41 95.24 1186.49 94.16 1186.49 92.816C1186.49 91.472 1185.41 90.392 1184.06 90.392C1182.72 90.392 1181.61 91.472 1181.61 92.816C1181.61 94.16 1182.72 95.24 1184.06 95.24ZM1210.3 80.864H1232.09V82.616H1210.3V80.864ZM1214.84 93.416H1231.28V95.144H1214.84V93.416ZM1221 87.632H1227.34V89.336H1221V87.632ZM1213.9 75.488H1215.75V96.944H1213.9V75.488ZM1220.21 74.984H1222.04V90.512H1220.21V74.984ZM1226.55 75.248H1228.35V90.392H1226.55V75.248ZM1238.72 81.152V83.768H1251.58V81.152H1238.72ZM1238.72 77.144V79.712H1251.58V77.144H1238.72ZM1236.92 75.632H1253.43V85.256H1236.92V75.632ZM1247.81 84.272C1249.49 86.6 1252.88 88.544 1256.24 89.432C1255.83 89.792 1255.3 90.488 1255.04 90.968C1251.6 89.864 1248.17 87.584 1246.28 84.848L1247.81 84.272ZM1242.63 84.272L1244.19 84.92C1242.27 87.584 1238.74 89.888 1235.45 91.064C1235.16 90.608 1234.64 89.936 1234.23 89.576C1237.47 88.64 1240.9 86.576 1242.63 84.272ZM1240.64 88.496H1242.46V89.984C1242.46 92.288 1241.88 95.192 1237.23 97.064C1236.96 96.608 1236.39 95.984 1235.98 95.624C1240.2 94.04 1240.64 91.712 1240.64 89.936V88.496ZM1244.21 76.424H1246.04V84.584H1244.21V76.424ZM1248.27 88.496H1250.12V96.872H1248.27V88.496ZM1268.21 76.04C1268 76.976 1267.73 78.296 1267.11 79.904C1266.51 81.368 1265.62 82.976 1264.66 84.224C1265.6 83.672 1266.96 83.336 1268.02 83.336C1269.87 83.336 1271.31 84.44 1271.31 86.384C1271.31 87.632 1271.36 90.392 1271.38 91.88H1269.53C1269.63 90.608 1269.65 88.136 1269.63 86.888C1269.6 85.496 1268.64 84.848 1267.4 84.848C1265.86 84.848 1264.35 85.616 1263.24 86.6C1262.55 87.272 1261.88 88.136 1261.08 89.12L1259.43 87.896C1262.88 84.584 1264.49 81.8 1265.31 79.76C1265.84 78.44 1266.17 77 1266.24 75.872L1268.21 76.04ZM1259.98 78.632C1261.28 78.8 1262.93 78.872 1264.04 78.872C1267.28 78.872 1271.43 78.68 1274.81 78.08V79.856C1271.45 80.36 1266.99 80.576 1263.94 80.576C1262.91 80.576 1261.32 80.528 1259.98 80.432V78.632ZM1278.32 84.416C1277.72 84.608 1276.85 84.944 1276.2 85.184C1274.5 85.856 1272.22 86.768 1269.89 87.968C1267.52 89.216 1265.84 90.512 1265.84 92.168C1265.84 94.04 1267.68 94.328 1270.16 94.328C1272.03 94.328 1274.62 94.112 1276.73 93.728L1276.66 95.672C1274.84 95.888 1272.17 96.08 1270.08 96.08C1266.68 96.08 1263.92 95.336 1263.92 92.432C1263.92 89.504 1266.89 87.704 1269.75 86.24C1272.03 85.064 1273.97 84.32 1275.56 83.576C1276.28 83.24 1276.88 82.976 1277.55 82.64L1278.32 84.416ZM1282.68 77.24H1303.73V78.944H1282.68V77.24ZM1292.21 74.864H1294.06V77.912H1292.21V74.864ZM1295.45 77.912H1297.2V84.224C1297.2 85.136 1297.06 85.592 1296.36 85.856C1295.72 86.12 1294.61 86.144 1293 86.144C1292.93 85.64 1292.72 85.016 1292.52 84.512C1293.7 84.56 1294.73 84.56 1295.07 84.536C1295.38 84.536 1295.45 84.464 1295.45 84.2V77.912ZM1290.44 77.72H1292.12V79.064C1292.12 81.536 1291.76 84.728 1287.94 87.032C1287.68 86.648 1287.05 86.072 1286.64 85.808C1290.12 83.792 1290.44 81.056 1290.44 79.04V77.72ZM1298.45 80.888L1299.87 80.048C1301.4 81.44 1303.28 83.408 1304.14 84.728L1302.63 85.664C1301.84 84.344 1300.01 82.328 1298.45 80.888ZM1286.31 80.168L1288.01 80.648C1287 82.448 1285.25 84.32 1283.5 85.472C1283.19 85.136 1282.61 84.656 1282.25 84.392C1283.91 83.384 1285.56 81.68 1286.31 80.168ZM1289.16 88.688C1291.66 92.552 1297.2 94.736 1304.24 95.312C1303.85 95.72 1303.4 96.464 1303.18 96.992C1295.96 96.2 1290.51 93.752 1287.58 89.24L1289.16 88.688ZM1290.56 85.688L1292.48 86.072C1290.68 88.496 1287.92 90.752 1284.03 92.432C1283.76 92.024 1283.26 91.4 1282.88 91.112C1286.57 89.696 1289.19 87.608 1290.56 85.688ZM1289.84 87.512H1298.81V89H1288.52L1289.84 87.512ZM1298.33 87.512H1298.74L1299.08 87.44L1300.23 88.256C1297.18 93.584 1290.34 95.984 1283.16 96.992C1283.02 96.56 1282.61 95.768 1282.28 95.408C1289.28 94.592 1295.79 92.408 1298.33 87.824V87.512Z" fill="#E82547"/>
<path d="M1407 23C1400.67 23 1394.48 24.8768 1389.22 28.393C1383.96 31.9092 1379.86 36.9069 1377.44 42.7541C1375.01 48.6014 1374.38 55.0355 1375.61 61.2429C1376.85 67.4503 1379.9 73.1521 1384.37 77.6274C1388.85 82.1027 1394.55 85.1504 1400.76 86.3851C1406.96 87.6198 1413.4 86.9861 1419.25 84.5641C1425.09 82.1421 1430.09 78.0406 1433.61 72.7782C1437.12 67.5159 1439 61.329 1439 55C1438.99 46.5158 1435.62 38.3817 1429.62 32.3825C1423.62 26.3833 1415.48 23.009 1407 23ZM1409.46 28.0369C1411.13 28.189 1412.78 28.4981 1414.38 28.96V81.0523C1412.78 81.5142 1411.13 81.8233 1409.46 81.9754V28.0369ZM1419.31 30.8862C1421.06 31.7844 1422.71 32.8719 1424.23 34.1292V75.8708C1422.71 77.1281 1421.06 78.2156 1419.31 79.1138V30.8862ZM1379.92 55C1379.93 48.2474 1382.46 41.7409 1387.01 36.7539C1391.56 31.7669 1397.81 28.6585 1404.54 28.0369V81.9631C1397.81 81.3415 1391.56 78.2331 1387.01 73.2461C1382.46 68.2591 1379.93 61.7526 1379.92 55ZM1429.15 70.5508V39.4492C1432.36 44.0019 1434.08 49.433 1434.08 55C1434.08 60.567 1432.36 65.9981 1429.15 70.5508Z" fill="white"/>
<path d="M1531.62 37.792H1572.8V95.872H1561.09V47.968H1542.75V96.448H1531.62V37.792ZM1489.38 43.648H1529.22V54.112H1489.38V43.648ZM1536.99 53.92H1566.75V62.368H1536.99V53.92ZM1536.99 68.512H1566.75V77.056H1536.99V68.512ZM1536.99 83.392H1566.75V92.704H1536.99V83.392ZM1505.02 34.336H1516.06V96.736H1505.02V34.336ZM1514.43 54.688C1517.7 57.088 1528.54 66.976 1531.04 69.472L1523.74 78.4C1520.29 73.312 1512.51 64 1508.29 59.584L1514.43 54.688ZM1500.51 14.848H1530.75V24.448H1500.51V14.848ZM1539.39 14.944H1575.78V24.544H1539.39V14.944ZM1500.9 5.82399L1511.94 8.608C1508.1 19.168 1501.95 30.112 1495.9 36.928C1493.7 35.104 1488.9 32.032 1486.21 30.592C1492.35 24.64 1497.82 15.136 1500.9 5.82399ZM1539.78 5.82399L1551.01 8.608C1547.36 19.264 1541.12 29.632 1534.69 36.064C1532.48 34.144 1527.68 30.976 1524.9 29.536C1531.42 23.968 1536.9 14.848 1539.78 5.82399ZM1504.06 22.24L1513.18 18.304C1515.87 22.336 1519.04 28 1520.29 31.648L1510.59 36.16C1509.54 32.512 1506.66 26.656 1504.06 22.24ZM1545.54 22.528L1554.75 18.976C1558.11 22.912 1562.05 28.576 1563.87 32.32L1553.98 36.352C1552.54 32.704 1548.8 26.752 1545.54 22.528ZM1504.83 49.696L1513.18 54.496C1508.86 65.632 1500.51 78.88 1492.83 86.56C1491.3 83.776 1488.32 79.744 1485.82 77.536C1493.12 71.488 1500.99 59.68 1504.83 49.696Z" fill="#DF003A"/>
</svg>
