<svg width="27" height="14" viewBox="0 0 27 14" fill="none" xmlns="http://www.w3.org/2000/svg">
<path d="M25.5351 9.92938C25.4209 9.99452 25.2949 10.0365 25.1645 10.0529C25.034 10.0693 24.9016 10.0598 24.7748 10.025C24.648 9.99014 24.5294 9.93065 24.4256 9.8499C24.3218 9.76915 24.235 9.66873 24.1701 9.55438L21.7951 5.40438C20.4143 6.33798 18.8912 7.04129 17.2851 7.48688L18.0188 11.8894C18.0405 12.019 18.0364 12.1516 18.0068 12.2796C17.9771 12.4076 17.9226 12.5285 17.8462 12.6355C17.7698 12.7424 17.6731 12.8332 17.5616 12.9027C17.4501 12.9722 17.326 13.0191 17.1963 13.0406C17.143 13.0494 17.0891 13.054 17.0351 13.0544C16.7985 13.054 16.5697 12.9698 16.3894 12.8167C16.2091 12.6636 16.0888 12.4515 16.0501 12.2181L15.3288 7.89563C13.8078 8.1073 12.2648 8.1073 10.7438 7.89563L10.0226 12.2181C9.98378 12.4519 9.8632 12.6644 9.68234 12.8175C9.50147 12.9707 9.27209 13.0546 9.03509 13.0544C8.97982 13.0542 8.92464 13.0496 8.87009 13.0406C8.74047 13.0191 8.61636 12.9722 8.50485 12.9027C8.39335 12.8332 8.29664 12.7424 8.22025 12.6355C8.14387 12.5285 8.0893 12.4076 8.05967 12.2796C8.03005 12.1516 8.02594 12.019 8.04759 11.8894L8.78509 7.48688C7.17963 7.03988 5.65734 6.3353 4.27759 5.40063L1.91009 9.55438C1.77748 9.78545 1.55852 9.95438 1.30136 10.024C1.0442 10.0936 0.769913 10.0582 0.538843 9.92563C0.307773 9.79303 0.138845 9.57406 0.0692225 9.3169C-0.000400364 9.05974 0.0349843 8.78545 0.167593 8.55438L2.66759 4.17938C1.78947 3.42073 0.98199 2.58397 0.255093 1.67938C0.164441 1.57817 0.0953673 1.45954 0.0520871 1.33075C0.00880698 1.20195 -0.00777153 1.06568 0.00336391 0.930262C0.0144994 0.794844 0.0531151 0.663117 0.116854 0.543119C0.180592 0.423122 0.268117 0.317372 0.374085 0.232325C0.480052 0.147279 0.60224 0.0847202 0.73319 0.0484673C0.864139 0.0122144 1.0011 0.00302775 1.13572 0.0214688C1.27034 0.0399099 1.39979 0.0855916 1.51616 0.155725C1.63254 0.225859 1.7334 0.318973 1.81259 0.429384C3.88759 2.99688 7.51759 6.05438 13.0351 6.05438C18.5526 6.05438 22.1826 2.99313 24.2576 0.429384C24.3359 0.316713 24.4365 0.221357 24.5532 0.149249C24.67 0.0771406 24.8003 0.0298228 24.9361 0.0102393C25.0719 -0.00934418 25.2102 -0.000774436 25.3426 0.0354153C25.4749 0.0716051 25.5984 0.134641 25.7053 0.220601C25.8123 0.30656 25.9004 0.413605 25.9642 0.535076C26.0279 0.656546 26.0661 0.789843 26.0761 0.926674C26.0862 1.0635 26.068 1.20094 26.0226 1.33044C25.9773 1.45993 25.9058 1.57871 25.8126 1.67938C25.0857 2.58397 24.2782 3.42073 23.4001 4.17938L25.9001 8.55438C25.9672 8.66843 26.011 8.79466 26.029 8.92576C26.0469 9.05686 26.0387 9.19022 26.0048 9.31812C25.9708 9.44601 25.9118 9.5659 25.8312 9.67083C25.7506 9.77575 25.6499 9.86364 25.5351 9.92938Z" fill="#3D3D3D"/>
</svg>
