<svg width="31" height="28" viewBox="0 0 31 28" fill="none" xmlns="http://www.w3.org/2000/svg">
<path d="M29.3473 21.1623L27.8697 21.6335L28.763 24.4522L24.7999 22.4636V12.4445L16.275 8.16661V2.96515L18.0491 4.75931L19.1513 3.6625L15.5242 0L11.8537 3.65876L12.9466 4.76337L14.7253 2.9907V8.16693L6.20006 12.4445V22.4636L2.24791 24.4459L3.13931 21.6335L1.66202 21.1623L0 26.4445L5.18913 28L5.65827 26.5174L3.16849 25.7238L7.06662 23.7682L15.5 28L23.9334 23.7682L27.8343 25.7257L25.351 26.5174L25.8202 28L31 26.4445L29.3473 21.1623ZM14.725 25.8718L9.68401 23.3423C9.7163 23.2924 9.7371 23.2298 9.73865 23.1522C9.71381 22.7714 9.21921 22.7334 9.11303 23.0556L7.75 22.372V21.9229C7.93909 22.0146 8.21138 21.9201 8.21728 21.6257C8.19927 21.3502 7.93536 21.2543 7.75 21.3437V18.8696C7.93909 18.9612 8.21138 18.8668 8.21728 18.5727C8.19927 18.2972 7.93536 18.2009 7.75 18.2904V15.8166C7.93909 15.9082 8.21138 15.8138 8.21728 15.5193C8.19927 15.2442 7.93536 15.1479 7.75 15.2373V14.0929L10.6145 15.5299C10.6269 15.8322 10.9449 15.9232 11.1296 15.7886L14.725 17.5927V25.8718ZM8.79975 12.8792L15.5 9.51707L22.2009 12.8795L15.5 16.2413L8.79975 12.8792ZM23.25 15.237C23.065 15.1473 22.8017 15.2392 22.7827 15.5206C22.7889 15.8038 23.0609 15.9073 23.25 15.8185V16.7635C23.065 16.6738 22.8017 16.7657 22.7827 17.0471C22.7889 17.3303 23.0609 17.4338 23.25 17.345V18.2901C23.065 18.2003 22.8017 18.2922 22.7827 18.5736C22.7889 18.8568 23.0609 18.9603 23.25 18.8715V19.8169C23.065 19.7271 22.8017 19.8191 22.7827 20.1004C22.7889 20.3837 23.0609 20.4868 23.25 20.398V21.3434C23.065 21.2536 22.8017 21.3456 22.7827 21.6269C22.7889 21.9102 23.0609 22.0136 23.25 21.9248V22.3713L21.8873 23.055C21.7823 22.7381 21.2874 22.7636 21.2613 23.1534C21.2632 23.2288 21.2843 23.2908 21.3172 23.341L18.8448 24.5815C18.7399 24.2646 18.245 24.2901 18.2189 24.6799C18.2208 24.7554 18.2419 24.8174 18.2751 24.8675L16.275 25.8718V25.773C16.4293 25.768 16.5792 25.6599 16.5836 25.4421C16.5706 25.2405 16.4246 25.1349 16.275 25.1277V24.2459C16.4293 24.2409 16.5792 24.1331 16.5836 23.9153C16.5706 23.7134 16.4246 23.6081 16.275 23.6009V22.7191C16.4293 22.7141 16.5792 22.6063 16.5836 22.3885C16.5706 22.1866 16.4246 22.0812 16.275 22.0741V21.1923C16.4293 21.1873 16.5792 21.0791 16.5836 20.8617C16.5706 20.6597 16.4246 20.5541 16.275 20.5473V19.6654C16.4293 19.6604 16.5792 19.5523 16.5836 19.3345C16.5706 19.1329 16.4246 19.0273 16.275 19.0204V18.1386C16.4293 18.1336 16.5792 18.0255 16.5836 17.8077C16.5746 17.6659 16.4994 17.5721 16.4041 17.5266L16.831 17.3123C17.0155 17.4456 17.3297 17.3662 17.343 17.0555L18.9874 16.2304C18.9836 16.2475 18.9812 16.2647 18.9802 16.2834C18.9889 16.7152 19.617 16.7302 19.626 16.2815C19.617 16.1397 19.5419 16.0459 19.4466 16.0001L19.8735 15.7858C20.0579 15.9191 20.3718 15.8393 20.3855 15.529L22.0298 14.7042C22.0261 14.721 22.0233 14.7382 22.0223 14.7569C22.0314 15.1887 22.6595 15.2037 22.6685 14.755C22.6591 14.6132 22.5843 14.5194 22.489 14.4736L23.25 14.0916V15.237ZM21.9078 15.5184C21.8991 15.9668 21.2707 15.9525 21.2617 15.5206C21.2899 15.0943 21.8808 15.1021 21.9078 15.5184ZM21.1471 16.2818C21.1387 16.7302 20.5103 16.7156 20.5013 16.2837C20.5295 15.8577 21.1204 15.8655 21.1471 16.2818ZM22.6685 16.2818C22.6595 16.7302 22.0314 16.7156 22.0223 16.2837C22.0506 15.8577 22.6411 15.8655 22.6685 16.2818ZM18.8657 17.0452C18.8566 17.4936 18.2282 17.479 18.2192 17.0471C18.2478 16.6208 18.8383 16.6289 18.8657 17.0452ZM20.3864 17.0452C20.3777 17.4936 19.7493 17.479 19.7406 17.0471C19.7685 16.6208 20.3594 16.6289 20.3864 17.0452ZM21.9078 17.0452C21.8991 17.4936 21.2707 17.479 21.2617 17.0471C21.2899 16.6208 21.8808 16.6289 21.9078 17.0452ZM18.105 17.8086C18.0963 18.257 17.4679 18.2427 17.4588 17.8108C17.4871 17.3842 18.078 17.3923 18.105 17.8086ZM19.626 17.8086C19.617 18.257 18.9889 18.2427 18.9802 17.8108C19.0082 17.3842 19.5987 17.3923 19.626 17.8086ZM21.1471 17.8086C21.1387 18.257 20.5103 18.2427 20.5013 17.8108C20.5295 17.3842 21.1204 17.3923 21.1471 17.8086ZM22.6685 17.8086C22.6595 18.257 22.0314 18.2427 22.0223 17.8108C22.0506 17.3842 22.6411 17.3923 22.6685 17.8086ZM17.344 18.572C17.3356 19.0204 16.7072 19.0058 16.6982 18.5739C16.7264 18.1477 17.3176 18.1558 17.344 18.572ZM18.8657 18.572C18.8566 19.0204 18.2282 19.0058 18.2192 18.5739C18.2478 18.1477 18.8383 18.1558 18.8657 18.572ZM20.3864 18.572C20.3777 19.0204 19.7493 19.0058 19.7406 18.5739C19.7685 18.1477 20.3594 18.1558 20.3864 18.572ZM21.9078 18.572C21.8991 19.0204 21.2707 19.0058 21.2617 18.5739C21.2899 18.1477 21.8808 18.1558 21.9078 18.572ZM18.105 19.3351C18.0963 19.7835 17.4679 19.7692 17.4588 19.3373C17.4871 18.9111 18.078 18.9189 18.105 19.3351ZM19.626 19.3351C19.617 19.7835 18.9889 19.7692 18.9802 19.3373C19.0082 18.9111 19.5987 18.9189 19.626 19.3351ZM21.1471 19.3351C21.1387 19.7835 20.5103 19.7692 20.5013 19.3373C20.5295 18.9111 21.1204 18.9189 21.1471 19.3351ZM22.6685 19.3351C22.6595 19.7835 22.0314 19.7692 22.0223 19.3373C22.0506 18.9111 22.6411 18.9189 22.6685 19.3351ZM17.344 20.0986C17.3356 20.5469 16.7072 20.5326 16.6982 20.1007C16.7264 19.6745 17.3176 19.6823 17.344 20.0986ZM18.8657 20.0986C18.8566 20.5469 18.2282 20.5326 18.2192 20.1007C18.2478 19.6745 18.8383 19.6823 18.8657 20.0986ZM20.3864 20.0986C20.3777 20.5469 19.7493 20.5326 19.7406 20.1007C19.7685 19.6745 20.3594 19.6823 20.3864 20.0986ZM21.9078 20.0986C21.8991 20.5469 21.2707 20.5326 21.2617 20.1007C21.2899 19.6745 21.8808 19.6823 21.9078 20.0986ZM18.105 20.862C18.0963 21.3103 17.4679 21.2957 17.4588 20.8638C17.4871 20.4376 18.078 20.446 18.105 20.862ZM19.626 20.862C19.617 21.3103 18.9889 21.2957 18.9802 20.8638C19.0082 20.4376 19.5987 20.446 19.626 20.862ZM21.1471 20.862C21.1387 21.3103 20.5103 21.2957 20.5013 20.8638C20.5295 20.4376 21.1204 20.446 21.1471 20.862ZM22.6685 20.862C22.6595 21.3103 22.0314 21.2957 22.0223 20.8638C22.0506 20.4376 22.6411 20.446 22.6685 20.862ZM17.344 21.6254C17.3356 22.0738 16.7072 22.0594 16.6982 21.6276C16.7264 21.201 17.3176 21.2091 17.344 21.6254ZM18.8657 21.6254C18.8566 22.0738 18.2282 22.0594 18.2192 21.6276C18.2478 21.201 18.8383 21.2091 18.8657 21.6254ZM20.3864 21.6254C20.3777 22.0738 19.7493 22.0594 19.7406 21.6276C19.7685 21.201 20.3594 21.2091 20.3864 21.6254ZM21.9078 21.6254C21.8991 22.0738 21.2707 22.0594 21.2617 21.6276C21.2899 21.201 21.8808 21.2091 21.9078 21.6254ZM18.105 22.3888C18.0963 22.8372 17.4679 22.8225 17.4588 22.391C17.4871 21.9647 18.078 21.9725 18.105 22.3888ZM19.626 22.3888C19.617 22.8372 18.9889 22.8225 18.9802 22.391C19.0082 21.9647 19.5987 21.9725 19.626 22.3888ZM21.1471 22.3888C21.1387 22.8372 20.5103 22.8225 20.5013 22.391C20.5295 21.9647 21.1204 21.9725 21.1471 22.3888ZM22.6685 22.3888C22.6595 22.8372 22.0314 22.8225 22.0223 22.391C22.0506 21.9647 22.6411 21.9725 22.6685 22.3888ZM17.344 23.1519C17.3356 23.6003 16.7072 23.5856 16.6982 23.1541C16.7264 22.7278 17.3176 22.7356 17.344 23.1519ZM18.8657 23.1519C18.8566 23.6003 18.2282 23.5856 18.2192 23.1541C18.2478 22.7278 18.8383 22.7356 18.8657 23.1519ZM20.3864 23.1519C20.3777 23.6003 19.7493 23.5856 19.7406 23.1541C19.7685 22.7278 20.3594 22.7356 20.3864 23.1519ZM18.105 23.9153C18.0963 24.3637 17.4679 24.349 17.4588 23.9172C17.4871 23.4912 18.078 23.499 18.105 23.9153ZM19.626 23.9153C19.617 24.3637 18.9889 24.349 18.9802 23.9172C19.0082 23.4912 19.5987 23.499 19.626 23.9153ZM17.344 24.6787C17.3356 25.1274 16.7072 25.1128 16.6982 24.6809C16.7264 24.2543 17.3176 24.2627 17.344 24.6787ZM9.73834 17.0452C9.72965 17.4936 9.10123 17.479 9.09254 17.0471C9.12079 16.6208 9.71133 16.6289 9.73834 17.0452ZM12.135 17.0471C12.1629 16.6208 12.7538 16.6286 12.7808 17.0452C12.7718 17.4939 12.1437 17.479 12.135 17.0471ZM11.2597 18.572C11.251 19.0204 10.6226 19.0058 10.6136 18.5739C10.6422 18.1477 11.2327 18.1558 11.2597 18.572ZM13.656 18.5739C13.6846 18.1477 14.2751 18.1558 14.3018 18.572C14.2931 19.0204 13.665 19.0055 13.656 18.5739ZM9.73834 20.0986C9.72965 20.5469 9.10123 20.5326 9.09254 20.1007C9.12079 19.6745 9.71133 19.6823 9.73834 20.0986ZM12.135 20.1007C12.1629 19.6745 12.7538 19.6823 12.7808 20.0986C12.7718 20.5473 12.1437 20.5326 12.135 20.1007ZM11.2597 21.6254C11.251 22.0738 10.6226 22.0594 10.6136 21.6276C10.6422 21.201 11.2327 21.2091 11.2597 21.6254ZM13.656 21.6276C13.6846 21.2013 14.2751 21.2091 14.3018 21.6254C14.2931 22.0738 13.665 22.0591 13.656 21.6276ZM12.135 23.1541C12.1629 22.7278 12.7538 22.7356 12.7808 23.1519C12.7718 23.6006 12.1437 23.5856 12.135 23.1541ZM13.656 24.6806C13.6846 24.2543 14.2751 24.2624 14.3018 24.6784C14.2931 25.1274 13.665 25.1124 13.656 24.6806Z" fill="black"/>
</svg>
