<svg width="38" height="36" viewBox="0 0 38 36" fill="none" xmlns="http://www.w3.org/2000/svg">
<path d="M30.6841 4.00719C30.4366 3.9247 30.4366 3.57524 30.6841 3.49275L32.1369 3.00905C32.4563 2.90258 32.7464 2.7232 32.9844 2.48513C33.2224 2.24705 33.4016 1.95682 33.5079 1.63745L33.9917 0.185605C34.0742 -0.0618682 34.4237 -0.0618682 34.5062 0.185605L34.9899 1.6382C35.0964 1.95752 35.2758 2.24765 35.5139 2.48559C35.752 2.72354 36.0423 2.90276 36.3617 3.00905L37.8137 3.49275C37.8679 3.51053 37.9151 3.54498 37.9485 3.59117C37.982 3.63736 38 3.69294 38 3.74997C38 3.80701 37.982 3.86258 37.9485 3.90877C37.9151 3.95496 37.8679 3.98941 37.8137 4.00719L36.3609 4.49089C36.0416 4.59728 35.7515 4.77655 35.5136 5.01449C35.2756 5.25243 35.0963 5.54251 34.9899 5.86174L34.5062 7.31434C34.4884 7.36853 34.4539 7.41572 34.4077 7.44917C34.3615 7.48263 34.306 7.50064 34.2489 7.50064C34.1919 7.50064 34.1363 7.48263 34.0901 7.44917C34.0439 7.41572 34.0094 7.36853 33.9917 7.31434L33.5079 5.86175C33.4015 5.54251 33.2222 5.25243 32.9842 5.01449C32.7463 4.77655 32.4562 4.59728 32.1369 4.49089L30.6841 4.00719ZM26.8599 6.90413C26.8274 6.89338 26.7991 6.87267 26.7791 6.84493C26.7591 6.8172 26.7483 6.78386 26.7483 6.74965C26.7483 6.71544 26.7591 6.6821 26.7791 6.65437C26.7991 6.62664 26.8274 6.60592 26.8599 6.59517L27.7314 6.30495C28.1199 6.17521 28.4244 5.87074 28.5541 5.48229L28.8444 4.61088C28.8551 4.5784 28.8759 4.55014 28.9036 4.53011C28.9313 4.51008 28.9647 4.4993 28.9989 4.4993C29.0331 4.4993 29.0664 4.51008 29.0942 4.53011C29.1219 4.55014 29.1426 4.5784 29.1534 4.61088L29.4436 5.48229C29.5075 5.67387 29.6151 5.84796 29.7579 5.99075C29.9007 6.13354 30.0748 6.24112 30.2664 6.30495L31.1379 6.59517C31.1704 6.60592 31.1986 6.62664 31.2187 6.65437C31.2387 6.6821 31.2495 6.71544 31.2495 6.74965C31.2495 6.78386 31.2387 6.8172 31.2187 6.84493C31.1986 6.87267 31.1704 6.89338 31.1379 6.90413L30.2664 7.19435C30.0748 7.25818 29.9007 7.36576 29.7579 7.50855C29.6151 7.65134 29.5075 7.82543 29.4436 8.01701L29.1534 8.88842C29.1426 8.9209 29.1219 8.94916 29.0942 8.96919C29.0664 8.98922 29.0331 9 28.9989 9C28.9647 9 28.9313 8.98922 28.9036 8.96919C28.8759 8.94916 28.8551 8.9209 28.8444 8.88842L28.5541 8.01701C28.4903 7.82543 28.3827 7.65134 28.2399 7.50855C28.0971 7.36576 27.923 7.25818 27.7314 7.19435L26.8599 6.90413ZM26.0731 1.60295C26.0518 1.59555 26.0333 1.58168 26.0201 1.56327C26.007 1.54485 26 1.52281 26 1.50021C26 1.47761 26.007 1.45558 26.0201 1.43716C26.0333 1.41875 26.0518 1.40488 26.0731 1.39748L26.6536 1.204C26.9131 1.11776 27.1164 0.914528 27.2026 0.655056L27.3961 0.0746182C27.4035 0.0532654 27.4174 0.0347479 27.4358 0.0216435C27.4542 0.00853997 27.4763 0.00149804 27.4989 0.00149804C27.5215 0.00149804 27.5435 0.00853997 27.5619 0.0216435C27.5804 0.0347479 27.5942 0.0532654 27.6016 0.0746182L27.7951 0.655056C27.8377 0.782925 27.9094 0.899117 28.0047 0.994407C28.1 1.0897 28.2163 1.16146 28.3441 1.204L28.9246 1.39748C28.946 1.40488 28.9645 1.41875 28.9776 1.43716C28.9907 1.45558 28.9978 1.47761 28.9978 1.50021C28.9978 1.52281 28.9907 1.54485 28.9776 1.56327C28.9645 1.58168 28.946 1.59555 28.9246 1.60295L28.3441 1.79643C28.2163 1.83897 28.1 1.91073 28.0047 2.00602C27.9094 2.10131 27.8377 2.2175 27.7951 2.34537L27.6016 2.92506C27.5942 2.94641 27.5804 2.96493 27.5619 2.97803C27.5435 2.99114 27.5215 2.99818 27.4989 2.99818C27.4763 2.99818 27.4542 2.99114 27.4358 2.97803C27.4174 2.96493 27.4035 2.94641 27.3961 2.92506L27.2026 2.34462C27.1164 2.08515 26.9131 1.88192 26.6536 1.79568L26.0731 1.60295Z" fill="white"/>
<path d="M33.4789 32.5872L25.7713 24.8796C27.6269 22.4092 28.6287 19.4023 28.6253 16.3126C28.6253 8.4207 22.2046 2 14.3126 2C6.4207 2 0 8.4207 0 16.3126C0 24.2046 6.4207 30.6253 14.3126 30.6253C17.4023 30.6287 20.4092 29.6269 22.8796 27.7713L30.5872 35.4789C30.9774 35.8277 31.4862 36.0138 32.0093 35.9992C32.5325 35.9846 33.0301 35.7702 33.4002 35.4002C33.7702 35.0301 33.9846 34.5325 33.9992 34.0093C34.0138 33.4862 33.8277 32.9774 33.4789 32.5872ZM4.08932 16.3126C4.08932 14.2907 4.68891 12.3141 5.81226 10.6329C6.93562 8.95165 8.53228 7.64131 10.4003 6.86753C12.2684 6.09375 14.324 5.89129 16.3071 6.28576C18.2902 6.68023 20.1119 7.65391 21.5416 9.08366C22.9714 10.5134 23.945 12.335 24.3395 14.3182C24.734 16.3013 24.5315 18.3569 23.7577 20.2249C22.984 22.093 21.6736 23.6897 19.9924 24.813C18.3112 25.9364 16.3346 26.5359 14.3126 26.5359C11.6022 26.5327 9.00379 25.4546 7.08726 23.538C5.17072 21.6215 4.09258 19.023 4.08932 16.3126Z" fill="white"/>
</svg>
