<svg width="72" height="70" viewBox="0 0 72 70" fill="none" xmlns="http://www.w3.org/2000/svg">
<g id="send">
<rect x="0.880859" y="0.194702" width="70.6195" height="69.6106" rx="10.0885" fill="#5A1720"/>
<path id="Vector" d="M47.6841 21.0072C47.4366 20.9247 47.4366 20.5752 47.6841 20.4928L49.1369 20.0091C49.4563 19.9026 49.7464 19.7232 49.9844 19.4851C50.2224 19.2471 50.4016 18.9568 50.5079 18.6375L50.9917 17.1856C51.0742 16.9381 51.4237 16.9381 51.5062 17.1856L51.9899 18.6382C52.0964 18.9575 52.2758 19.2476 52.5139 19.4856C52.752 19.7235 53.0423 19.9028 53.3617 20.0091L54.8137 20.4928C54.8679 20.5105 54.9151 20.545 54.9485 20.5912C54.982 20.6374 55 20.6929 55 20.75C55 20.807 54.982 20.8626 54.9485 20.9088C54.9151 20.955 54.8679 20.9894 54.8137 21.0072L53.3609 21.4909C53.0416 21.5973 52.7515 21.7766 52.5136 22.0145C52.2756 22.2524 52.0963 22.5425 51.9899 22.8617L51.5062 24.3143C51.4884 24.3685 51.4539 24.4157 51.4077 24.4492C51.3615 24.4826 51.306 24.5006 51.2489 24.5006C51.1919 24.5006 51.1363 24.4826 51.0901 24.4492C51.0439 24.4157 51.0094 24.3685 50.9917 24.3143L50.5079 22.8617C50.4015 22.5425 50.2222 22.2524 49.9843 22.0145C49.7463 21.7766 49.4562 21.5973 49.1369 21.4909L47.6841 21.0072ZM43.8599 23.9041C43.8274 23.8934 43.7991 23.8727 43.7791 23.8449C43.7591 23.8172 43.7483 23.7839 43.7483 23.7497C43.7483 23.7154 43.7591 23.6821 43.7791 23.6544C43.7991 23.6266 43.8274 23.6059 43.8599 23.5952L44.7314 23.3049C45.1199 23.1752 45.4244 22.8707 45.5541 22.4823L45.8444 21.6109C45.8551 21.5784 45.8759 21.5501 45.9036 21.5301C45.9313 21.5101 45.9647 21.4993 45.9989 21.4993C46.0331 21.4993 46.0664 21.5101 46.0942 21.5301C46.1219 21.5501 46.1426 21.5784 46.1534 21.6109L46.4436 22.4823C46.5075 22.6739 46.6151 22.848 46.7579 22.9908C46.9007 23.1335 47.0748 23.2411 47.2664 23.3049L48.1379 23.5952C48.1704 23.6059 48.1986 23.6266 48.2187 23.6544C48.2387 23.6821 48.2495 23.7154 48.2495 23.7497C48.2495 23.7839 48.2387 23.8172 48.2187 23.8449C48.1986 23.8727 48.1704 23.8934 48.1379 23.9041L47.2664 24.1944C47.0748 24.2582 46.9007 24.3658 46.7579 24.5086C46.6151 24.6513 46.5075 24.8254 46.4436 25.017L46.1534 25.8884C46.1426 25.9209 46.1219 25.9492 46.0942 25.9692C46.0664 25.9892 46.0331 26 45.9989 26C45.9647 26 45.9313 25.9892 45.9036 25.9692C45.8759 25.9492 45.8551 25.9209 45.8444 25.8884L45.5541 25.017C45.4903 24.8254 45.3827 24.6513 45.2399 24.5086C45.0971 24.3658 44.923 24.2582 44.7314 24.1944L43.8599 23.9041ZM43.0731 18.603C43.0518 18.5956 43.0333 18.5817 43.0201 18.5633C43.007 18.5449 43 18.5228 43 18.5002C43 18.4776 43.007 18.4556 43.0201 18.4372C43.0333 18.4188 43.0518 18.4049 43.0731 18.3975L43.6536 18.204C43.9131 18.1178 44.1164 17.9145 44.2026 17.6551L44.3961 17.0746C44.4035 17.0533 44.4174 17.0347 44.4358 17.0216C44.4542 17.0085 44.4763 17.0015 44.4989 17.0015C44.5215 17.0015 44.5435 17.0085 44.5619 17.0216C44.5804 17.0347 44.5942 17.0533 44.6016 17.0746L44.7951 17.6551C44.8377 17.7829 44.9094 17.8991 45.0047 17.9944C45.1 18.0897 45.2163 18.1615 45.3441 18.204L45.9246 18.3975C45.946 18.4049 45.9645 18.4188 45.9776 18.4372C45.9907 18.4556 45.9978 18.4776 45.9978 18.5002C45.9978 18.5228 45.9907 18.5449 45.9776 18.5633C45.9645 18.5817 45.946 18.5956 45.9246 18.603L45.3441 18.7964C45.2163 18.839 45.1 18.9107 45.0047 19.006C44.9094 19.1013 44.8377 19.2175 44.7951 19.3454L44.6016 19.9251C44.5942 19.9464 44.5804 19.9649 44.5619 19.978C44.5435 19.9911 44.5215 19.9982 44.4989 19.9982C44.4763 19.9982 44.4542 19.9911 44.4358 19.978C44.4174 19.9649 44.4035 19.9464 44.3961 19.9251L44.2026 19.3446C44.1164 19.0852 43.9131 18.8819 43.6536 18.7957L43.0731 18.603Z" fill="white"/>
<path id="Vector_2" d="M50.4789 49.5872L42.7713 41.8796C44.6269 39.4092 45.6287 36.4023 45.6253 33.3126C45.6253 25.4207 39.2046 19 31.3126 19C23.4207 19 17 25.4207 17 33.3126C17 41.2046 23.4207 47.6253 31.3126 47.6253C34.4023 47.6287 37.4092 46.6269 39.8796 44.7713L47.5872 52.4789C47.9774 52.8277 48.4862 53.0138 49.0093 52.9992C49.5325 52.9846 50.0301 52.7702 50.4002 52.4002C50.7702 52.0301 50.9846 51.5325 50.9992 51.0093C51.0138 50.4862 50.8277 49.9774 50.4789 49.5872ZM21.0893 33.3126C21.0893 31.2907 21.6889 29.3141 22.8123 27.6329C23.9356 25.9517 25.5323 24.6413 27.4003 23.8675C29.2684 23.0938 31.324 22.8913 33.3071 23.2858C35.2902 23.6802 37.1119 24.6539 38.5416 26.0837C39.9714 27.5134 40.945 29.335 41.3395 31.3182C41.734 33.3013 41.5315 35.3569 40.7577 37.2249C39.984 39.093 38.6736 40.6897 36.9924 41.813C35.3112 42.9364 33.3346 43.5359 31.3126 43.5359C28.6022 43.5327 26.0038 42.4546 24.0873 40.538C22.1707 38.6215 21.0926 36.023 21.0893 33.3126Z" fill="white"/>
</g>
</svg>
