<svg width="64" height="64" viewBox="0 0 64 64" fill="none" xmlns="http://www.w3.org/2000/svg">
<path id="Vector" d="M32 64C38.329 64 44.5159 62.1232 49.7782 58.607C55.0406 55.0908 59.1421 50.0931 61.5641 44.2459C63.9861 38.3986 64.6198 31.9645 63.3851 25.7571C62.1504 19.5497 59.1027 13.8479 54.6274 9.37259C50.1521 4.89731 44.4503 1.8496 38.2429 0.614877C32.0355 -0.61985 25.6014 0.0138564 19.7541 2.43586C13.9069 4.85786 8.90918 8.95938 5.39297 14.2218C1.87677 19.4841 -4.63869e-07 25.671 -1.01717e-06 32C0.00895768 40.4842 3.38325 48.6183 9.38247 54.6175C15.3817 60.6167 23.5158 63.991 32 64ZM29.5385 58.9631C27.872 58.811 26.2237 58.5019 24.6154 58.04L24.6154 5.9477C26.2237 5.48575 27.872 5.17669 29.5385 5.02462L29.5385 58.9631ZM19.6923 56.1138C17.9379 55.2156 16.287 54.1281 14.7692 52.8708L14.7692 11.1292C16.2871 9.87187 17.9379 8.78438 19.6923 7.88616L19.6923 56.1138ZM59.0769 32C59.0688 38.7526 56.541 45.2591 51.9882 50.2461C47.4354 55.2331 41.1855 58.3415 34.4615 58.9631L34.4615 5.03693C41.1855 5.65846 47.4354 8.76691 51.9882 13.7539C56.541 18.7409 59.0688 25.2474 59.0769 32ZM9.84615 16.4492L9.84615 47.5508C6.64238 42.9981 4.92296 37.567 4.92296 32C4.92296 26.433 6.64239 21.0019 9.84615 16.4492Z" fill="white"/>
</svg>
