<svg width="77" height="54" viewBox="0 0 77 54" fill="none" xmlns="http://www.w3.org/2000/svg">
<path d="M22.6977 19.5196V27.2182H11.8812C5.618 27.2182 0.436512 22.0036 0.436512 15.679V4.73877H22.6977V12.4375H8.06046V15.679C8.06046 17.7931 9.80507 19.5196 11.8812 19.5196H22.6977Z" fill="white"/>
<path d="M16.0464 41.8495C16.0464 39.3261 13.9488 37.2086 11.4667 37.2086C8.98459 37.2086 6.86954 39.3085 6.86954 41.8495C6.86954 44.3906 8.96711 46.4729 11.4667 46.4729C13.9663 46.4729 16.0464 44.373 16.0464 41.8495ZM22.916 47.6199C22.916 50.7785 20.329 53.4078 17.2001 53.4078H0V30.2736H17.2001C20.329 30.2736 22.916 32.8853 22.916 36.0439C22.916 39.2026 20.329 41.8319 17.2001 41.8319V41.8495C20.329 41.8495 22.916 44.4612 22.916 47.6199Z" fill="white"/>
<path d="M38.9093 41.8495C38.9093 39.732 37.1894 37.985 35.0834 37.985C32.995 37.985 31.24 39.7496 31.24 41.8495C31.24 43.9671 32.9775 45.6964 35.0834 45.6964C37.1719 45.6964 38.9093 43.9495 38.9093 41.8495ZM46.5786 41.8495C46.5786 48.1845 41.3838 53.4078 35.0834 53.4078C28.783 53.4078 23.5707 48.1845 23.5707 41.8495C23.5707 35.4969 28.8181 30.2736 35.0834 30.2736C41.3838 30.2736 46.5786 35.5146 46.5786 41.8495Z" fill="white"/>
<path d="M63.7079 40.8967L76.1683 53.4078H65.3225L59.847 47.9199L54.4065 53.4078H43.5782L56.0211 40.8967L46.0528 30.8912H56.8986L59.8645 33.8735L62.8304 30.8912H73.6762L63.7079 40.8967Z" fill="white"/>
<path d="M61.5457 21.1073V27.2182L55.2166 27.2182V21.1073L61.5457 21.1073Z" fill="white"/>
<path d="M67.6566 14.7781V21.1073L61.5457 21.1073L61.5457 14.7781L67.6566 14.7781Z" fill="white"/>
<path d="M74.2041 21.1073V27.2182L67.6567 27.2182L67.6566 21.1073L74.2041 21.1073Z" fill="white"/>
<path d="M45.6839 4.79247V12.4728H34.8332C32.7331 12.4728 31.0004 14.1951 31.0004 16.3041V27.2182H23.3525V4.79247H45.6839Z" fill="white"/>
<path d="M53.9071 4.79247V27.2182H46.2591V4.79247H53.9071ZM47.8517 2.17379C47.8517 3.03497 47.1166 3.73797 46.2591 3.73797C45.419 3.73797 44.7015 3.03497 44.7015 2.17379C44.7015 1.31262 45.419 0.592041 46.2591 0.592041C47.1166 0.592041 47.8517 1.31262 47.8517 2.17379Z" fill="white"/>
</svg>
