<svg width="433" height="301" viewBox="0 0 433 301" fill="none" xmlns="http://www.w3.org/2000/svg">
<path d="M129.5 108.08V151.75H68.1436C32.6166 151.75 3.2251 122.17 3.2251 86.2948L3.2251 24.2374L129.5 24.2374V67.9074H46.4711V86.2948C46.4711 98.2865 56.3673 108.08 68.1436 108.08H129.5Z" fill="#ED254E"/>
<path d="M91.7717 234.742C91.7717 220.428 79.8734 208.416 65.7938 208.416C51.7142 208.416 39.7168 220.328 39.7168 234.742C39.7168 249.156 51.615 260.967 65.7938 260.967C79.9725 260.967 91.7717 249.056 91.7717 234.742ZM130.738 267.473C130.738 285.391 116.064 300.305 98.3157 300.305H49.5328H0.75L0.75 169.078H98.3157C116.064 169.078 130.738 183.893 130.738 201.81C130.738 219.727 116.064 234.642 98.3157 234.642V234.742C116.064 234.742 130.738 249.556 130.738 267.473Z" fill="#ED254E"/>
<path d="M221.456 234.74C221.456 222.729 211.701 212.82 199.755 212.82C187.909 212.82 177.954 222.829 177.954 234.74C177.954 246.752 187.809 256.561 199.755 256.561C211.601 256.561 221.456 246.652 221.456 234.74ZM264.959 234.74C264.959 270.674 235.493 300.303 199.755 300.303C164.017 300.303 134.451 270.674 134.451 234.74C134.451 198.706 164.216 169.078 199.755 169.078C235.493 169.078 264.959 198.806 264.959 234.74Z" fill="#ED254E"/>
<path d="M362.122 229.335L432.801 300.303H371.28L340.221 269.173L309.361 300.303H247.94L318.52 229.335L261.976 172.582H323.497L340.321 189.498L357.144 172.582L418.665 172.582L362.122 229.335Z" fill="#ED254E"/>
<path d="M349.855 117.084L349.855 151.747L313.954 151.747L313.954 117.084L349.855 117.084Z" fill="#ED254E"/>
<path d="M384.518 81.183L384.518 117.084L349.854 117.084L349.854 81.183L384.518 81.183Z" fill="#ED254E"/>
<path d="M421.657 117.084L421.657 151.747L384.518 151.747L384.518 117.084L421.657 117.084Z" fill="#ED254E"/>
<path d="M259.883 24.5417V68.1066H198.334C186.422 68.1066 176.594 77.8763 176.594 89.8392V151.747H133.212V24.5417L259.883 24.5417Z" fill="#ED254E"/>
<path d="M306.527 24.5417V151.747H263.145V24.5417L306.527 24.5417ZM272.179 9.68775C272.179 14.5726 268.01 18.5602 263.145 18.5602C258.38 18.5602 254.31 14.5726 254.31 9.68775C254.31 4.8029 258.38 0.715576 263.145 0.715576C268.01 0.715576 272.179 4.8029 272.179 9.68775Z" fill="#ED254E"/>
</svg>
