<svg width="64" height="64" viewBox="0 0 64 64" fill="none" xmlns="http://www.w3.org/2000/svg">
<path id="Vector" d="M32 0C25.671 0 19.4841 1.87677 14.2218 5.39297C8.95939 8.90917 4.85787 13.9069 2.43587 19.7541C0.0138651 25.6014 -0.619842 32.0355 0.614885 38.2429C1.84961 44.4503 4.89732 50.1521 9.37259 54.6274C13.8479 59.1027 19.5497 62.1504 25.7571 63.3851C31.9645 64.6198 38.3986 63.9861 44.2459 61.5641C50.0931 59.1421 55.0908 55.0406 58.607 49.7782C62.1232 44.5159 64 38.329 64 32C63.991 23.5158 60.6167 15.3817 54.6175 9.38248C48.6183 3.38325 40.4842 0.00895944 32 0ZM34.4615 5.03692C36.128 5.18899 37.7763 5.49805 39.3846 5.96V58.0523C37.7763 58.5142 36.128 58.8233 34.4615 58.9754V5.03692ZM44.3077 7.88615C46.0621 8.78437 47.7129 9.87187 49.2308 11.1292V52.8708C47.7129 54.1281 46.0621 55.2156 44.3077 56.1138V7.88615ZM4.92309 32C4.93121 25.2474 7.45902 18.7409 12.0118 13.7539C16.5646 8.7669 22.8145 5.65845 29.5385 5.03692V58.9631C22.8145 58.3415 16.5646 55.2331 12.0118 50.2461C7.45902 45.2591 4.93121 38.7526 4.92309 32ZM54.1538 47.5508V16.4492C57.3576 21.0019 59.077 26.433 59.077 32C59.077 37.567 57.3576 42.9981 54.1538 47.5508Z" fill="white"/>
</svg>
